<svg width="1728" height="1117" viewBox="0 0 1728 1117" fill="none" xmlns="http://www.w3.org/2000/svg">
<g clip-path="url(#clip0_59_1202)">
<rect width="1728" height="1117" fill="#478E60"/>
<path d="M1596.12 639.667C1609.99 625.796 1632.47 625.792 1646.34 639.66C1660.21 653.527 1660.21 676.013 1646.33 689.884C1632.46 703.755 1609.98 703.759 1596.11 689.891C1582.24 676.024 1582.25 653.538 1596.12 639.667Z" fill="#2D5521"/>
<path d="M1657.89 628.109L1656.51 669.84L1616.28 629.607L1657.89 628.109Z" fill="#2D5521"/>
<path fill-rule="evenodd" clip-rule="evenodd" d="M1620.11 653.232C1632.18 642.097 1646.66 633.165 1656.31 628.336L1657.21 630.125C1647.68 634.89 1633.37 643.722 1621.46 654.702C1609.51 665.724 1600.2 678.702 1600.2 691.753H1598.2C1598.2 677.811 1608.08 664.324 1620.11 653.232Z" fill="#2C4021"/>
<path d="M1533.89 655.667C1520.01 641.796 1497.53 641.792 1483.66 655.66C1469.79 669.527 1469.8 692.013 1483.67 705.884C1497.54 719.755 1520.03 719.759 1533.89 705.891C1547.76 692.024 1547.76 669.538 1533.89 655.667Z" fill="#2D5521"/>
<path d="M1472.11 644.109L1473.49 685.84L1513.73 645.607L1472.11 644.109Z" fill="#2D5521"/>
<path fill-rule="evenodd" clip-rule="evenodd" d="M1509.9 669.232C1497.82 658.097 1483.35 649.165 1473.69 644.336L1472.8 646.125C1482.32 650.89 1496.63 659.722 1508.54 670.702C1520.49 681.724 1529.8 694.702 1529.8 707.753H1531.8C1531.8 693.811 1521.93 680.324 1509.9 669.232Z" fill="#2C4021"/>
<path fill-rule="evenodd" clip-rule="evenodd" d="M1529.79 706.793C1530.19 706.402 1530.82 706.402 1531.21 706.793L1568.21 743.793C1568.6 744.183 1568.6 744.817 1568.21 745.207C1567.82 745.598 1567.19 745.598 1566.79 745.207L1529.79 708.207C1529.4 707.817 1529.4 707.183 1529.79 706.793Z" fill="#2C4021"/>
<path fill-rule="evenodd" clip-rule="evenodd" d="M1599.71 690.799C1599.33 690.405 1598.69 690.4 1598.3 690.787L1566.8 721.787C1566.41 722.175 1566.4 722.808 1566.79 723.201C1567.18 723.595 1567.81 723.6 1568.2 723.213L1599.7 692.213C1600.1 691.825 1600.1 691.192 1599.71 690.799Z" fill="#2C4021"/>
<path fill-rule="evenodd" clip-rule="evenodd" d="M1568.5 588.001C1568.5 588 1568.5 588 1567.5 588C1566.5 588 1566.5 588 1566.5 588.001L1566.5 756.5C1566.5 774.064 1571.69 788.228 1581.81 797.995C1591.92 807.758 1606.83 813 1626 813L1779 813C1779 813 1779 813 1779 812C1779 811 1779 811 1779 811L1626 811C1607.18 811 1592.83 805.859 1583.2 796.556C1573.56 787.258 1568.5 773.671 1568.5 756.5L1568.5 588.001Z" fill="#2C4021"/>
<path d="M1641.37 657.366C1623.01 646.095 1582.08 615.087 1565.23 581.233L1641.37 657.366Z" fill="white"/>
<path d="M1641.37 657.367C1630.1 639.01 1599.09 598.084 1565.23 581.234L1641.37 657.367Z" fill="white"/>
<path d="M1564.77 580.765C1546.41 569.493 1505.48 538.486 1488.63 504.632L1564.77 580.765Z" fill="white"/>
<path d="M1564.77 580.766C1553.49 562.409 1522.49 521.482 1488.63 504.633L1564.77 580.766Z" fill="white"/>
<path d="M1664.78 622.329C1643.51 618.94 1593.83 605.955 1565.31 581.126L1664.78 622.329Z" fill="white"/>
<path d="M1664.78 622.329C1647.34 609.683 1603.03 583.738 1565.31 581.126L1664.78 622.329Z" fill="white"/>
<path d="M1564.69 580.873C1543.42 577.484 1493.75 564.499 1465.22 539.67L1564.69 580.873Z" fill="white"/>
<path d="M1564.69 580.873C1547.26 568.227 1502.95 542.282 1465.22 539.67L1564.69 580.873Z" fill="white"/>
<path d="M1673 580.999C1652.05 586.009 1601.19 593.023 1565.33 580.999L1673 580.999Z" fill="white"/>
<path d="M1673 581C1652.05 575.99 1601.19 568.976 1565.33 581L1673 581Z" fill="white"/>
<path d="M1564.67 580.999C1543.72 586.009 1492.85 593.023 1457 580.999L1564.67 580.999Z" fill="white"/>
<path d="M1564.67 581C1543.72 575.99 1492.85 568.976 1457 581L1564.67 581Z" fill="white"/>
<path d="M1664.78 539.67C1647.34 552.316 1603.03 578.261 1565.31 580.872L1664.78 539.67Z" fill="white"/>
<path d="M1664.78 539.67C1643.51 543.059 1593.83 556.044 1565.31 580.873L1664.78 539.67Z" fill="white"/>
<path d="M1564.7 581.126C1547.26 593.772 1502.95 619.717 1465.22 622.329L1564.7 581.126Z" fill="white"/>
<path d="M1564.7 581.127C1543.42 584.516 1493.75 597.501 1465.22 622.329L1564.7 581.127Z" fill="white"/>
<path d="M1641.37 504.632C1630.1 522.989 1599.09 563.915 1565.24 580.765L1641.37 504.632Z" fill="white"/>
<path d="M1641.37 504.633C1623.01 515.904 1582.09 546.911 1565.24 580.765L1641.37 504.633Z" fill="white"/>
<path d="M1564.77 581.234C1553.5 599.591 1522.49 640.517 1488.63 657.367L1564.77 581.234Z" fill="white"/>
<path d="M1564.77 581.234C1546.41 592.506 1505.48 623.513 1488.63 657.367L1564.77 581.234Z" fill="white"/>
<path d="M1606.33 481.221C1602.94 502.494 1589.96 552.171 1565.13 580.694L1606.33 481.221Z" fill="white"/>
<path d="M1606.33 481.221C1593.69 498.66 1567.74 542.969 1565.13 580.694L1606.33 481.221Z" fill="white"/>
<path d="M1564.88 581.306C1561.49 602.579 1548.5 652.256 1523.67 680.778L1564.88 581.306Z" fill="white"/>
<path d="M1564.88 581.306C1552.23 598.745 1526.29 643.053 1523.67 680.778L1564.88 581.306Z" fill="white"/>
<path d="M1565 473C1570.01 493.951 1577.03 544.816 1565 580.669L1565 473Z" fill="white"/>
<path d="M1565 473C1559.99 493.951 1552.98 544.816 1565 580.669L1565 473Z" fill="white"/>
<path d="M1565 581.331C1570.01 602.282 1577.03 653.146 1565 688.999L1565 581.331Z" fill="white"/>
<path d="M1565 581.331C1559.99 602.282 1552.98 653.146 1565 688.999L1565 581.331Z" fill="white"/>
<path d="M1523.67 481.222C1536.32 498.66 1562.27 542.969 1564.88 580.694L1523.67 481.222Z" fill="white"/>
<path d="M1523.67 481.221C1527.06 502.495 1540.05 552.171 1564.88 580.694L1523.67 481.221Z" fill="white"/>
<path d="M1565.13 581.306C1577.78 598.745 1603.72 643.053 1606.33 680.779L1565.13 581.306Z" fill="white"/>
<path d="M1565.13 581.306C1568.52 602.579 1581.5 652.256 1606.33 680.778L1565.13 581.306Z" fill="white"/>
<path d="M1488.64 504.633C1506.99 515.905 1547.92 546.912 1564.77 580.766L1488.64 504.633Z" fill="white"/>
<path d="M1488.64 504.633C1499.91 522.99 1530.92 563.916 1564.77 580.766L1488.64 504.633Z" fill="white"/>
<path d="M1565.24 581.234C1583.6 592.506 1624.52 623.513 1641.37 657.367L1565.24 581.234Z" fill="white"/>
<path d="M1565.24 581.234C1576.51 599.591 1607.52 640.517 1641.37 657.367L1565.24 581.234Z" fill="white"/>
<path d="M1465.23 539.671C1486.5 543.06 1536.18 556.045 1564.7 580.874L1465.23 539.671Z" fill="white"/>
<path d="M1465.23 539.67C1482.66 552.316 1526.97 578.261 1564.7 580.873L1465.23 539.67Z" fill="white"/>
<path d="M1565.31 581.127C1586.58 584.516 1636.26 597.501 1664.78 622.33L1565.31 581.127Z" fill="white"/>
<path d="M1565.31 581.126C1582.75 593.772 1627.06 619.717 1664.78 622.329L1565.31 581.126Z" fill="white"/>
<path d="M1457 581C1477.95 575.99 1528.82 568.977 1564.67 581L1457 581Z" fill="white"/>
<path d="M1457 581C1477.95 586.01 1528.82 593.024 1564.67 581L1457 581Z" fill="white"/>
<path d="M1565.33 581C1586.28 575.99 1637.15 568.976 1673 581L1565.33 581Z" fill="white"/>
<path d="M1565.33 581C1586.28 586.01 1637.15 593.023 1673 581L1565.33 581Z" fill="white"/>
<path d="M1465.23 622.33C1482.66 609.684 1526.97 583.739 1564.7 581.127L1465.23 622.33Z" fill="white"/>
<path d="M1465.22 622.329C1486.5 618.94 1536.17 605.955 1564.7 581.126L1465.22 622.329Z" fill="white"/>
<path d="M1565.31 580.873C1582.75 568.227 1627.06 542.282 1664.78 539.67L1565.31 580.873Z" fill="white"/>
<path d="M1565.31 580.873C1586.58 577.484 1636.26 564.499 1664.78 539.67L1565.31 580.873Z" fill="white"/>
<path d="M1488.64 657.367C1499.91 639.01 1530.92 598.084 1564.77 581.234L1488.64 657.367Z" fill="white"/>
<path d="M1488.64 657.367C1506.99 646.095 1547.92 615.088 1564.77 581.234L1488.64 657.367Z" fill="white"/>
<path d="M1565.24 580.765C1576.51 562.409 1607.52 521.482 1641.37 504.633L1565.24 580.765Z" fill="white"/>
<path d="M1565.24 580.765C1583.6 569.493 1624.52 538.486 1641.37 504.632L1565.24 580.765Z" fill="white"/>
<path d="M1523.68 680.778C1527.06 659.505 1540.05 609.828 1564.88 581.306L1523.68 680.778Z" fill="white"/>
<path d="M1523.67 680.778C1536.32 663.339 1562.27 619.031 1564.88 581.306L1523.67 680.778Z" fill="white"/>
<path d="M1565.13 580.694C1568.52 559.421 1581.51 509.744 1606.33 481.221L1565.13 580.694Z" fill="white"/>
<path d="M1565.13 580.693C1577.78 563.255 1603.72 518.946 1606.33 481.221L1565.13 580.693Z" fill="white"/>
<path d="M1565.01 688.999C1560 668.048 1552.98 617.184 1565.01 581.331L1565.01 688.999Z" fill="white"/>
<path d="M1565 688.999C1570.01 668.048 1577.03 617.184 1565 581.331L1565 688.999Z" fill="white"/>
<path d="M1565.01 580.668C1560 559.718 1552.98 508.853 1565.01 473L1565.01 580.668Z" fill="white"/>
<path d="M1565 580.668C1570.01 559.717 1577.03 508.853 1565 473L1565 580.668Z" fill="white"/>
<path d="M1606.33 680.778C1593.68 663.339 1567.74 619.031 1565.13 581.305L1606.33 680.778Z" fill="white"/>
<path d="M1606.33 680.778C1602.94 659.505 1589.96 609.828 1565.13 581.306L1606.33 680.778Z" fill="white"/>
<path d="M1564.87 580.693C1552.23 563.255 1526.28 518.946 1523.67 481.221L1564.87 580.693Z" fill="white"/>
<path d="M1564.87 580.694C1561.48 559.42 1548.5 509.744 1523.67 481.221L1564.87 580.694Z" fill="white"/>
<path d="M1566.77 563.347C1566.59 561.175 1563.41 561.175 1563.23 563.347V563.347C1563.08 565.126 1560.7 565.601 1559.88 564.014V564.014C1558.88 562.075 1555.95 563.292 1556.61 565.368V565.368C1557.16 567.068 1555.13 568.419 1553.77 567.266V567.266C1552.11 565.857 1549.86 568.106 1551.27 569.769V569.769C1552.42 571.132 1551.07 573.154 1549.37 572.609V572.609C1547.29 571.944 1546.08 574.882 1548.02 575.88V575.88C1549.6 576.697 1549.13 579.082 1547.35 579.23V579.23C1545.18 579.41 1545.18 582.59 1547.35 582.77V582.77C1549.13 582.918 1549.6 585.303 1548.02 586.12V586.12C1546.08 587.118 1547.29 590.056 1549.37 589.391V589.391C1551.07 588.846 1552.42 590.868 1551.27 592.231V592.231C1549.86 593.894 1552.11 596.143 1553.77 594.734V594.734C1555.13 593.581 1557.16 594.932 1556.61 596.632V596.632C1555.95 598.708 1558.88 599.925 1559.88 597.986V597.986C1560.7 596.399 1563.08 596.874 1563.23 598.653V598.653C1563.41 600.825 1566.59 600.825 1566.77 598.653V598.653C1566.92 596.874 1569.3 596.399 1570.12 597.986V597.986C1571.12 599.925 1574.06 598.708 1573.39 596.632V596.632C1572.85 594.932 1574.87 593.581 1576.23 594.734V594.734C1577.9 596.143 1580.15 593.894 1578.74 592.231V592.231C1577.58 590.868 1578.93 588.846 1580.63 589.391V589.391C1582.71 590.056 1583.93 587.118 1581.99 586.12V586.12C1580.4 585.303 1580.88 582.918 1582.65 582.77V582.77C1584.83 582.59 1584.83 579.41 1582.65 579.23V579.23C1580.88 579.082 1580.4 576.697 1581.99 575.88V575.88C1583.93 574.882 1582.71 571.944 1580.63 572.609V572.609C1578.93 573.154 1577.58 571.132 1578.74 569.769V569.769C1580.15 568.106 1577.9 565.857 1576.23 567.266V567.266C1574.87 568.419 1572.85 567.068 1573.39 565.368V565.368C1574.06 563.292 1571.12 562.075 1570.12 564.014V564.014C1569.3 565.601 1566.92 565.126 1566.77 563.347V563.347Z" fill="#F4B542" stroke="#638A4E" stroke-width="2"/>
<path d="M1398 1004C1398 1034.93 1372.93 1060 1342 1060L1318 1060L1318 1036C1318 1005.07 1343.07 980 1374 980L1398 980L1398 1004Z" fill="#74AA63"/>
<path d="M1396.57 981.429C1370.86 995.821 1319.43 1030.26 1319.43 1058.57" stroke="#2C4021" stroke-width="2" stroke-linecap="round"/>
<path d="M1328 954.5L1424.5 954.5C1455.03 954.5 1483.13 939.235 1483.13 904.431C1483.13 860.957 1483.13 883.829 1483.13 873.449C1483.13 836.813 1494.73 813 1543.59 813C1604.66 813 1739.64 813 1874 813" stroke="#2C4021" stroke-width="2"/>
<path d="M1397.5 981C1406 980 1423 973.5 1423 955.5" stroke="#2C4021" stroke-width="2" stroke-linecap="round"/>
<path d="M1354.6 984.363C1343.81 969.513 1323.02 966.22 1308.17 977.01C1293.32 987.8 1290.03 1008.59 1300.82 1023.44C1311.61 1038.29 1331.24 1033.12 1338.4 1018.62C1354.57 1016.17 1365.39 999.214 1354.6 984.363Z" fill="#742FAB"/>
<path d="M1290.93 952.882C1288.7 954.507 1294.35 1003.42 1294.35 1003.42L1337.43 972.115C1337.43 972.115 1293.17 951.258 1290.93 952.882Z" fill="#742FAB"/>
<path d="M1285.37 1023.16C1296.16 1008.31 1292.86 987.521 1278.01 976.732C1263.16 965.942 1242.38 969.234 1231.59 984.085C1220.8 998.936 1231.78 1016.01 1247.78 1018.34C1255.11 1032.96 1274.58 1038.01 1285.37 1023.16Z" fill="#742FAB"/>
<path d="M1295.63 952.882C1293.4 951.258 1248.62 971.748 1248.62 971.748L1291.71 1003.05C1291.71 1003.05 1297.87 954.507 1295.63 952.882Z" fill="#742FAB"/>
<path d="M1227.08 969.306C1244.54 974.979 1263.29 965.424 1268.96 947.966C1274.63 930.508 1265.08 911.757 1247.62 906.085C1230.16 900.412 1217.32 916.134 1220.05 932.073C1208.4 943.559 1209.62 963.634 1227.08 969.306Z" fill="#742FAB"/>
<path d="M1297.09 957.355C1297.94 954.726 1264.62 918.477 1264.62 918.477L1248.16 969.128C1248.16 969.128 1296.23 959.983 1297.09 957.355Z" fill="#742FAB"/>
<path d="M1260.28 897.23C1260.28 915.586 1275.16 930.467 1293.52 930.467C1311.88 930.467 1326.76 915.586 1326.76 897.229C1326.76 878.873 1307.84 871.515 1293.52 879.037C1279 871.514 1260.28 878.873 1260.28 897.23Z" fill="#742FAB"/>
<path d="M1293.28 960.119C1296.05 960.119 1320.23 917.226 1320.23 917.226L1266.97 917.226C1266.97 917.226 1290.52 960.119 1293.28 960.119Z" fill="#742FAB"/>
<path d="M1339.09 906.535C1321.64 912.208 1312.08 930.959 1317.75 948.417C1323.43 965.875 1342.18 975.429 1359.64 969.757C1377.09 964.084 1378.25 943.814 1366.67 932.524C1369.33 916.39 1356.55 900.863 1339.09 906.535Z" fill="#742FAB"/>
<path d="M1289.48 957.354C1290.33 959.983 1338.6 969.723 1338.6 969.723L1322.14 919.071C1322.14 919.071 1288.63 954.726 1289.48 957.354Z" fill="#742FAB"/>
<path d="M1289.21 933.187C1289.79 928.751 1296.21 928.751 1296.79 933.187V933.187C1297.2 936.379 1301.14 937.657 1303.35 935.319V935.319C1306.42 932.068 1311.61 935.843 1309.47 939.769V939.769C1307.93 942.595 1310.36 945.942 1313.53 945.35V945.35C1317.92 944.526 1319.91 950.633 1315.87 952.551V952.551C1312.96 953.931 1312.96 958.069 1315.87 959.449V959.449C1319.91 961.367 1317.92 967.474 1313.53 966.65V966.65C1310.36 966.058 1307.93 969.405 1309.47 972.231V972.231C1311.61 976.157 1306.42 979.932 1303.35 976.681V976.681C1301.14 974.343 1297.2 975.621 1296.79 978.813V978.813C1296.21 983.249 1289.79 983.249 1289.21 978.813V978.813C1288.8 975.621 1284.86 974.343 1282.65 976.681V976.681C1279.58 979.932 1274.39 976.157 1276.53 972.231V972.231C1278.07 969.405 1275.64 966.058 1272.47 966.65V966.65C1268.08 967.474 1266.09 961.367 1270.13 959.449V959.449C1273.04 958.069 1273.04 953.931 1270.13 952.551V952.551C1266.09 950.633 1268.08 944.526 1272.47 945.35V945.35C1275.64 945.942 1278.07 942.595 1276.53 939.769V939.769C1274.39 935.843 1279.58 932.068 1282.65 935.319V935.319C1284.86 937.657 1288.8 936.379 1289.21 933.187V933.187Z" fill="#EED2F8" stroke="#824E8A" stroke-width="2"/>
<path d="M1003 966C1003 935.072 1028.07 910 1059 910H1115V966C1115 996.928 1089.93 1022 1059 1022H1003V966Z" fill="#74AA63"/>
<path d="M1005 1020C1041 999.85 1113 951.64 1113 912" stroke="#2C4021" stroke-width="2" stroke-linecap="round"/>
<path d="M988 880V976.497C988 1007.03 1003.26 1035.13 1038.07 1035.13C1081.54 1035.13 1113.17 1035.13 1123.55 1035.13C1160.19 1035.13 1184 1046.73 1184 1095.59C1184 1156.66 1184 1291.64 1184 1426" stroke="#2C4021" stroke-width="2"/>
<path d="M977.354 951.497C961.89 924.713 927.64 915.536 900.856 931L887 939L895 952.856C910.464 979.641 944.713 988.818 971.497 973.354L985.354 965.354L977.354 951.497Z" fill="#74AA63"/>
<path d="M983.597 964.883C957.078 965.236 901.497 961.539 888.756 939.471" stroke="#2C4021" stroke-width="2" stroke-linecap="round"/>
<path fill-rule="evenodd" clip-rule="evenodd" d="M988.191 747.196C1005.34 755.994 1024.65 773.222 1041.23 796.033C1071.68 837.949 1065 868.479 1037.86 861.95C1035.89 889.624 1004.58 886.698 974.13 844.781C958.213 822.874 947.974 800.153 944.471 781.531L930.963 725.354C929.569 719.557 935.889 714.974 940.966 718.102L988.191 747.196Z" fill="#C86EAC"/>
<path fill-rule="evenodd" clip-rule="evenodd" d="M1032.17 779.25C1029.11 798.279 1018.69 821.971 1002.12 844.781C971.663 886.698 940.563 889.775 938.386 861.95C911.458 868.628 904.566 837.949 935.021 796.033C950.938 774.125 969.382 757.366 986.01 748.28L1035.26 718.073C1040.35 714.956 1046.66 719.551 1045.25 725.346L1032.17 779.25Z" fill="#C86EAC"/>
<path fill-rule="evenodd" clip-rule="evenodd" d="M1015.28 830.988C996.236 833.951 970.485 831.365 943.669 822.652C894.393 806.641 881.856 778.014 907.647 767.346C892.974 743.799 920.022 727.764 969.298 743.775C995.052 752.143 1016.69 764.506 1030.47 777.513L1074.42 815.021C1078.95 818.892 1076.53 826.314 1070.59 826.768L1015.28 830.988Z" fill="#C86EAC"/>
<path fill-rule="evenodd" clip-rule="evenodd" d="M960.855 830.91C952.152 813.712 946.654 788.422 946.654 760.227C946.654 708.415 970.006 687.645 988.122 708.877C1005.98 687.646 1029.59 708.415 1029.59 760.227C1029.59 787.306 1024.52 811.706 1016.41 828.83L994.315 882.218C992.036 887.728 984.229 887.72 981.96 882.206L960.855 830.91Z" fill="#C86EAC"/>
<path fill-rule="evenodd" clip-rule="evenodd" d="M944.113 779.123C957.779 765.532 980.132 752.488 1006.95 743.775C1056.22 727.764 1083.19 743.555 1068.6 767.346C1094.31 777.771 1081.85 806.641 1032.58 822.652C1006.82 831.02 982.05 833.737 963.257 831.314L905.655 826.801C899.711 826.335 897.306 818.908 901.849 815.047L944.113 779.123Z" fill="#C86EAC"/>
<path d="M981.538 756.789C982.468 749.624 992.841 749.624 993.77 756.789V756.789C994.439 761.945 1000.8 764.011 1004.37 760.233V760.233C1009.33 754.982 1017.72 761.079 1014.26 767.422V767.422C1011.77 771.986 1015.7 777.394 1020.81 776.437V776.437C1027.91 775.107 1031.12 784.972 1024.59 788.07V788.07C1019.9 790.299 1019.9 796.983 1024.59 799.212V799.212C1031.12 802.31 1027.91 812.176 1020.81 810.845V810.845C1015.7 809.888 1011.77 815.296 1014.26 819.86V819.86C1017.72 826.203 1009.33 832.3 1004.37 827.05V827.05C1000.8 823.272 994.439 825.337 993.77 830.493V830.493C992.841 837.658 982.468 837.658 981.538 830.493V830.493C980.87 825.337 974.513 823.272 970.941 827.05V827.05C965.978 832.3 957.586 826.203 961.046 819.86V819.86C963.535 815.296 959.606 809.888 954.496 810.845V810.845C947.395 812.176 944.189 802.31 950.716 799.212V799.212C955.413 796.983 955.413 790.299 950.716 788.07V788.07C944.189 784.972 947.395 775.107 954.496 776.437V776.437C959.606 777.394 963.535 771.986 961.046 767.422V767.422C957.586 761.079 965.978 754.982 970.941 760.233V760.233C974.513 764.011 980.87 761.945 981.538 756.789V756.789Z" fill="#F4B442"/>
<path d="M1015.54 777.688L959.953 809.782" stroke="#DC8433" stroke-width="2" stroke-linecap="round"/>
<path d="M1019.84 793.735L955.654 793.735" stroke="#DC8433" stroke-width="2" stroke-linecap="round"/>
<path d="M1015.54 809.782L959.953 777.688" stroke="#DC8433" stroke-width="2" stroke-linecap="round"/>
<path d="M1003.79 821.529L971.701 765.941" stroke="#DC8433" stroke-width="2" stroke-linecap="round"/>
<path d="M987.748 825.829L987.748 761.641" stroke="#DC8433" stroke-width="2" stroke-linecap="round"/>
<path d="M971.701 821.529L1003.79 765.941" stroke="#DC8433" stroke-width="2" stroke-linecap="round"/>
<path d="M959.955 809.782L1015.54 777.688" stroke="#DC8433" stroke-width="2" stroke-linecap="round"/>
<path d="M955.654 793.735H1019.84" stroke="#DC8433" stroke-width="2" stroke-linecap="round"/>
<path d="M959.953 777.688L1015.54 809.782" stroke="#DC8433" stroke-width="2" stroke-linecap="round"/>
<path d="M971.7 765.941L1003.79 821.529" stroke="#DC8433" stroke-width="2" stroke-linecap="round"/>
<ellipse rx="35.5093" ry="35.5195" transform="matrix(0.707111 -0.707103 -0.70711 -0.707103 1265.22 587.775)" fill="#74AA63"/>
<path d="M1228.56 551.109L1229.94 592.84L1270.17 552.607L1228.56 551.109Z" fill="#74AA63"/>
<path d="M1229.69 552.231C1248.88 561.824 1287.25 587.759 1287.25 614.753" stroke="#2C4021" stroke-width="2"/>
<path d="M1299.45 578V674.497C1299.45 705.034 1284.18 733.128 1249.38 733.128C1205.91 733.128 1224.95 733.128 1220.45 733.128C1190.45 733.128 1184 749 1184 780C1184 841.074 1184 989.638 1184 1124" stroke="#2C4021" stroke-width="2"/>
<ellipse rx="35.5093" ry="35.5195" transform="matrix(-0.707111 -0.707103 0.70711 -0.707103 1333.67 649.775)" fill="#74AA63"/>
<path d="M1370.34 613.109L1368.96 654.84L1328.72 614.607L1370.34 613.109Z" fill="#74AA63"/>
<path d="M1369.21 614.231C1350.02 623.824 1311.65 649.759 1311.65 676.753" stroke="#2C4021" stroke-width="2"/>
<circle r="64" transform="matrix(-1 0 0 1 1298.45 537)" fill="#BD2A31"/>
<path fill-rule="evenodd" clip-rule="evenodd" d="M1331.1 537.176C1313.42 537.176 1299.1 522.849 1299.1 505.176C1299.1 522.849 1284.77 537.176 1267.1 537.176C1284.77 537.176 1299.1 551.503 1299.1 569.176C1299.1 551.503 1313.42 537.176 1331.1 537.176Z" fill="#93141A"/>
<path d="M1298.47 537.703C1299.22 519.73 1298.92 481.627 1291.71 473" stroke="#93141A" stroke-width="2" stroke-linecap="round"/>
<path d="M1298.75 538.04C1281.16 537.139 1243.89 537.5 1235.45 546.143" stroke="#93141A" stroke-width="2" stroke-linecap="round"/>
<path d="M1299.08 537.703C1298.18 555.286 1298.54 592.56 1307.19 601" stroke="#93141A" stroke-width="2" stroke-linecap="round"/>
<path d="M1298.75 537.367C1316.72 538.267 1354.82 537.907 1363.45 529.264" stroke="#93141A" stroke-width="2" stroke-linecap="round"/>
<circle cx="1109.57" cy="547.089" r="46.1744" transform="rotate(-30 1109.57 547.089)" fill="#74AA63"/>
<path d="M1133.28 547.86L1081.33 532.089L1145.41 495.095L1133.28 547.86Z" fill="#74AA63"/>
<circle cx="1061.82" cy="464.387" r="46.1744" transform="rotate(-30 1061.82 464.387)" fill="#74AA63"/>
<path d="M1095.53 522.765L1043.59 506.994L1107.66 470L1095.53 522.765Z" fill="#74AA63"/>
<circle cx="1014.08" cy="381.684" r="46.1744" transform="rotate(-30 1014.08 381.684)" fill="#74AA63"/>
<path d="M1047.78 440.062L995.836 424.291L1059.91 387.297L1047.78 440.062Z" fill="#74AA63"/>
<path d="M1008.02 370.629L1184 675.608" stroke="#2C4021" stroke-width="2"/>
<path d="M1184 345.608L1184 899.108" stroke="#2C4021" stroke-width="2"/>
<path fill-rule="evenodd" clip-rule="evenodd" d="M1226.75 366.328C1234.5 368.693 1241.57 373.504 1246.7 380.562C1259.24 397.822 1255.41 421.98 1238.15 434.52C1220.89 447.06 1196.74 443.233 1184.2 425.974C1179.07 418.916 1176.68 410.704 1176.82 402.606L1176.68 402.71L1176.88 401.118C1176.98 399.363 1177.19 397.616 1177.53 395.891L1182.3 357.643L1218.9 364.793C1221.56 365.032 1224.19 365.545 1226.74 366.325L1226.75 366.327L1226.75 366.328Z" fill="#FAE0BE"/>
<path fill-rule="evenodd" clip-rule="evenodd" d="M1187.5 400.994C1187.65 409.093 1185.26 417.304 1180.13 424.362C1167.59 441.622 1143.43 445.448 1126.17 432.908C1108.91 420.368 1105.09 396.211 1117.63 378.951C1122.75 371.893 1129.82 367.081 1137.57 364.717L1137.43 364.613L1139 364.31C1140.7 363.861 1142.43 363.529 1144.18 363.314L1182.03 356.033L1186.54 393.05C1187.13 395.652 1187.45 398.312 1187.5 400.985L1187.5 400.995L1187.5 400.994Z" fill="#FAE0BE"/>
<path fill-rule="evenodd" clip-rule="evenodd" d="M1142.41 374.377C1134.75 377.018 1126.2 377.281 1117.9 374.585C1097.61 367.993 1086.51 346.2 1093.1 325.91C1099.69 305.619 1121.49 294.515 1141.78 301.108C1150.07 303.804 1156.84 309.042 1161.48 315.679L1161.53 315.51L1162.31 316.914C1163.26 318.393 1164.11 319.934 1164.85 321.527L1183.47 355.274L1149.66 371.002C1147.37 372.371 1144.94 373.502 1142.42 374.374L1142.41 374.379L1142.41 374.377Z" fill="#FAE0BE"/>
<path fill-rule="evenodd" clip-rule="evenodd" d="M1153.79 323.261C1148.91 316.794 1146.02 308.745 1146.02 300.021C1146.02 278.687 1163.31 261.392 1184.64 261.392C1205.98 261.392 1223.27 278.687 1223.27 300.021C1223.27 308.745 1220.38 316.794 1215.5 323.261H1215.68L1214.59 324.431C1213.47 325.794 1212.27 327.079 1210.99 328.277L1184.64 356.416L1159.24 329.12C1157.23 327.363 1155.4 325.402 1153.79 323.268L1153.78 323.261H1153.79Z" fill="#FAE0BE"/>
<path fill-rule="evenodd" clip-rule="evenodd" d="M1205.91 318.286C1210.55 311.649 1217.32 306.411 1225.61 303.715C1245.9 297.122 1267.7 308.226 1274.29 328.517C1280.88 348.807 1269.78 370.6 1249.49 377.192C1241.19 379.888 1232.64 379.625 1224.98 376.984L1225.04 377.153L1223.59 376.472C1221.95 375.836 1220.35 375.088 1218.82 374.237L1183.92 357.88L1202.02 325.282C1203.07 322.827 1204.37 320.484 1205.91 318.293L1205.91 318.285L1205.91 318.286Z" fill="#FAE0BE"/>
<path d="M1181.46 331.653C1181.72 328.533 1186.28 328.533 1186.54 331.653V331.653C1186.75 334.207 1190.18 334.888 1191.35 332.609V332.609C1192.78 329.826 1197 331.573 1196.05 334.555V334.555C1195.27 336.996 1198.17 338.936 1200.13 337.279V337.279C1202.51 335.256 1205.74 338.485 1203.72 340.874V340.874C1202.06 342.83 1204 345.733 1206.45 344.952V344.952C1209.43 343.997 1211.17 348.215 1208.39 349.648V349.648C1206.11 350.822 1206.79 354.246 1209.35 354.458V354.458C1212.47 354.717 1212.47 359.283 1209.35 359.542V359.542C1206.79 359.754 1206.11 363.178 1208.39 364.352V364.352C1211.17 365.785 1209.43 370.003 1206.45 369.048V369.048C1204 368.267 1202.06 371.17 1203.72 373.126V373.126C1205.74 375.515 1202.51 378.744 1200.13 376.721V376.721C1198.17 375.064 1195.27 377.004 1196.05 379.445V379.445C1197 382.427 1192.78 384.174 1191.35 381.391V381.391C1190.18 379.112 1186.75 379.793 1186.54 382.347V382.347C1186.28 385.467 1181.72 385.467 1181.46 382.347V382.347C1181.25 379.793 1177.82 379.112 1176.65 381.391V381.391C1175.22 384.174 1171 382.427 1171.95 379.445V379.445C1172.73 377.004 1169.83 375.064 1167.87 376.721V376.721C1165.49 378.744 1162.26 375.515 1164.28 373.126V373.126C1165.94 371.17 1164 368.267 1161.55 369.048V369.048C1158.57 370.003 1156.83 365.785 1159.61 364.352V364.352C1161.89 363.178 1161.21 359.754 1158.65 359.542V359.542C1155.53 359.283 1155.53 354.717 1158.65 354.458V354.458C1161.21 354.246 1161.89 350.822 1159.61 349.648V349.648C1156.83 348.215 1158.57 343.997 1161.55 344.952V344.952C1164 345.733 1165.94 342.83 1164.28 340.874V340.874C1162.26 338.485 1165.49 335.256 1167.87 337.279V337.279C1169.83 338.936 1172.73 336.996 1171.95 334.555V334.555C1171 331.573 1175.22 329.826 1176.65 332.609V332.609C1177.82 334.888 1181.25 334.207 1181.46 331.653V331.653Z" fill="#F4B442"/>
<path d="M1213.7 327.301L1184 357" stroke="#DC8433" stroke-width="2"/>
<circle cx="1213.7" cy="327.301" r="6" transform="rotate(45 1213.7 327.301)" fill="#F4B442"/>
<path d="M1222.8 340.927L1184 357" stroke="#DC8433" stroke-width="2"/>
<circle cx="1222.8" cy="340.927" r="6" transform="rotate(67.5 1222.8 340.927)" fill="#F4B442"/>
<path d="M1226 357L1184 357" stroke="#DC8433" stroke-width="2"/>
<circle cx="1226" cy="357" r="6" transform="rotate(90 1226 357)" fill="#F4B442"/>
<path d="M1222.8 373.073L1184 357" stroke="#DC8433" stroke-width="2"/>
<circle cx="1222.8" cy="373.073" r="6" transform="rotate(112.5 1222.8 373.073)" fill="#F4B442"/>
<path d="M1213.7 386.698L1184 357" stroke="#DC8433" stroke-width="2"/>
<circle cx="1213.7" cy="386.698" r="6" transform="rotate(135 1213.7 386.698)" fill="#F4B442"/>
<path d="M1200.07 395.803L1184 357" stroke="#DC8433" stroke-width="2"/>
<circle cx="1200.07" cy="395.803" r="6" transform="rotate(157.5 1200.07 395.803)" fill="#F4B442"/>
<path d="M1184 399L1184 357" stroke="#DC8433" stroke-width="2"/>
<circle cx="1184" cy="399" r="6" transform="rotate(180 1184 399)" fill="#F4B442"/>
<path d="M1167.93 395.803L1184 357" stroke="#DC8433" stroke-width="2"/>
<circle cx="1167.93" cy="395.803" r="6" transform="rotate(-157.5 1167.93 395.803)" fill="#F4B442"/>
<path d="M1154.3 386.699L1184 357" stroke="#DC8433" stroke-width="2"/>
<circle cx="1154.3" cy="386.698" r="6" transform="rotate(-135 1154.3 386.698)" fill="#F4B442"/>
<path d="M1145.2 373.073L1184 357" stroke="#DC8433" stroke-width="2"/>
<circle cx="1145.2" cy="373.073" r="6" transform="rotate(-112.5 1145.2 373.073)" fill="#F4B442"/>
<path d="M1142 357L1184 357" stroke="#DC8433" stroke-width="2"/>
<circle cx="1142" cy="357" r="6" transform="rotate(-90 1142 357)" fill="#F4B442"/>
<path d="M1145.2 340.927L1184 357" stroke="#DC8433" stroke-width="2"/>
<circle cx="1145.2" cy="340.927" r="6" transform="rotate(-67.5 1145.2 340.927)" fill="#F4B442"/>
<path d="M1154.3 327.302L1184 357" stroke="#DC8433" stroke-width="2"/>
<circle cx="1154.3" cy="327.302" r="6" transform="rotate(-45 1154.3 327.302)" fill="#F4B442"/>
<path d="M1167.93 318.197L1184 357" stroke="#DC8433" stroke-width="2"/>
<circle cx="1167.93" cy="318.197" r="6" transform="rotate(-22.5 1167.93 318.197)" fill="#F4B442"/>
<path d="M1184 315V357" stroke="#DC8433" stroke-width="2"/>
<circle cx="1184" cy="315" r="6" fill="#F4B442"/>
<path d="M1200.07 318.197L1184 357" stroke="#DC8433" stroke-width="2"/>
<circle cx="1200.07" cy="318.197" r="6" transform="rotate(22.5 1200.07 318.197)" fill="#F4B442"/>
<path d="M758 1144.29L562 948.29C570 975.29 580 1012.29 624 1060.29C668 1108.29 725 1131.29 758 1144.29Z" fill="#3C652F"/>
<path d="M562 948.29L758 1144.29C750 1117.29 740 1080.29 696 1032.29C652 984.29 595 961.29 562 948.29Z" fill="#3C652F"/>
<path d="M757.5 1143.79C731.334 1104.62 657.6 1012.29 564 950.29" stroke="#2A501E" stroke-width="2" stroke-linecap="round"/>
<path d="M694.302 900.068C692.23 894.17 683.401 896.536 684.557 902.68V902.68C685.018 905.135 683.618 907.56 681.261 908.388V908.388C675.363 910.459 677.728 919.288 683.872 918.133V918.133C686.328 917.671 688.752 919.071 689.58 921.428V921.428C691.652 927.327 700.481 924.961 699.325 918.817V918.817C698.864 916.362 700.264 913.937 702.621 913.109V913.109C708.519 911.038 706.154 902.209 700.01 903.364V903.364C697.554 903.826 695.13 902.426 694.302 900.068V900.068Z" fill="#758CD0"/>
<path d="M696.538 908.785L691.342 905.785C690.864 905.508 690.252 905.672 689.976 906.151L686.976 911.347C686.7 911.825 686.864 912.437 687.342 912.713L692.538 915.713C693.017 915.989 693.628 915.825 693.904 915.347L696.904 910.151C697.18 909.672 697.017 909.061 696.538 908.785Z" fill="#5465AE" stroke="#6877BA" stroke-width="2"/>
<path d="M711.587 918.213C709.515 912.315 700.687 914.68 701.842 920.824V920.824C702.303 923.28 700.904 925.704 698.546 926.532V926.532C692.648 928.604 695.013 937.433 701.157 936.277V936.277C703.613 935.816 706.038 937.216 706.865 939.573V939.573C708.937 945.471 717.766 943.106 716.611 936.962V936.962C716.149 934.506 717.549 932.082 719.906 931.254V931.254C725.805 929.182 723.439 920.353 717.295 921.509V921.509C714.84 921.97 712.415 920.57 711.587 918.213V918.213Z" fill="#758CD0"/>
<path d="M713.823 926.929L708.627 923.929C708.149 923.653 707.537 923.817 707.261 924.295L704.261 929.491C703.985 929.97 704.149 930.581 704.627 930.857L709.823 933.857C710.302 934.134 710.913 933.97 711.189 933.491L714.189 928.295C714.466 927.817 714.302 927.205 713.823 926.929Z" fill="#5465AE" stroke="#6877BA" stroke-width="2"/>
<path d="M693.442 935.498C691.371 929.6 682.542 931.965 683.697 938.109V938.109C684.159 940.565 682.759 942.99 680.402 943.817V943.817C674.503 945.889 676.869 954.718 683.013 953.563V953.563C685.468 953.101 687.893 954.501 688.721 956.858V956.858C690.792 962.757 699.621 960.391 698.466 954.247V954.247C698.004 951.791 699.404 949.367 701.762 948.539V948.539C707.66 946.467 705.294 937.639 699.15 938.794V938.794C696.695 939.255 694.27 937.855 693.442 935.498V935.498Z" fill="#758CD0"/>
<path d="M695.679 944.214L690.483 941.214C690.004 940.938 689.393 941.102 689.117 941.58L686.117 946.776C685.841 947.255 686.004 947.866 686.483 948.142L691.679 951.142C692.157 951.419 692.769 951.255 693.045 950.776L696.045 945.58C696.321 945.102 696.157 944.49 695.679 944.214Z" fill="#5465AE" stroke="#6877BA" stroke-width="2"/>
<path d="M710.728 953.643C708.656 947.744 699.827 950.11 700.982 956.254V956.254C701.444 958.709 700.044 961.134 697.687 961.962V961.962C691.788 964.033 694.154 972.862 700.298 971.707V971.707C702.753 971.245 705.178 972.645 706.006 975.003V975.003C708.078 980.901 716.906 978.535 715.751 972.391V972.391C715.29 969.936 716.69 967.511 719.047 966.683V966.683C724.945 964.612 722.58 955.783 716.436 956.938V956.938C713.98 957.4 711.555 956 710.728 953.643V953.643Z" fill="#758CD0"/>
<path d="M712.964 962.359L707.768 959.359C707.29 959.083 706.678 959.247 706.402 959.725L703.402 964.921C703.126 965.399 703.29 966.011 703.768 966.287L708.964 969.287C709.442 969.563 710.054 969.399 710.33 968.921L713.33 963.725C713.606 963.247 713.442 962.635 712.964 962.359Z" fill="#5465AE" stroke="#6877BA" stroke-width="2"/>
<path d="M728.872 936.358C726.801 930.459 717.972 932.825 719.127 938.969V938.969C719.589 941.424 718.189 943.849 715.831 944.677V944.677C709.933 946.748 712.299 955.577 718.443 954.422V954.422C720.898 953.96 723.323 955.36 724.151 957.718V957.718C726.222 963.616 735.051 961.25 733.896 955.106V955.106C733.434 952.651 734.834 950.226 737.191 949.398V949.398C743.09 947.327 740.724 938.498 734.58 939.653V939.653C732.125 940.115 729.7 938.715 728.872 936.358V936.358Z" fill="#758CD0"/>
<path d="M731.109 945.074L725.912 942.074C725.434 941.798 724.823 941.961 724.546 942.44L721.546 947.636C721.27 948.114 721.434 948.726 721.912 949.002L727.109 952.002C727.587 952.278 728.198 952.114 728.475 951.636L731.475 946.44C731.751 945.961 731.587 945.35 731.109 945.074Z" fill="#5465AE" stroke="#6877BA" stroke-width="2"/>
<path d="M746.157 954.502C744.086 948.604 735.257 950.969 736.412 957.113V957.113C736.874 959.569 735.474 961.993 733.117 962.821V962.821C727.218 964.893 729.584 973.722 735.728 972.566V972.566C738.183 972.105 740.608 973.505 741.436 975.862V975.862C743.507 981.76 752.336 979.395 751.181 973.251V973.251C750.719 970.795 752.119 968.371 754.476 967.543V967.543C760.375 965.471 758.009 956.642 751.865 957.798V957.798C749.41 958.259 746.985 956.859 746.157 954.502V954.502Z" fill="#758CD0"/>
<path d="M748.394 963.218L743.198 960.218C742.719 959.942 742.108 960.106 741.832 960.584L738.832 965.78C738.555 966.259 738.719 966.87 739.198 967.146L744.394 970.146C744.872 970.423 745.484 970.259 745.76 969.78L748.76 964.584C749.036 964.106 748.872 963.494 748.394 963.218Z" fill="#5465AE" stroke="#6877BA" stroke-width="2"/>
<path d="M728.013 971.787C725.941 965.889 717.112 968.255 718.268 974.398V974.398C718.729 976.854 717.329 979.279 714.972 980.107V980.107C709.074 982.178 711.439 991.007 717.583 989.852V989.852C720.039 989.39 722.463 990.79 723.291 993.147V993.147C725.363 999.046 734.192 996.68 733.036 990.536V990.536C732.575 988.081 733.975 985.656 736.332 984.828V984.828C742.23 982.756 739.865 973.928 733.721 975.083V975.083C731.265 975.544 728.841 974.145 728.013 971.787V971.787Z" fill="#758CD0"/>
<path d="M730.249 980.503L725.053 977.503C724.575 977.227 723.963 977.391 723.687 977.869L720.687 983.066C720.411 983.544 720.575 984.155 721.053 984.432L726.249 987.432C726.727 987.708 727.339 987.544 727.615 987.066L730.615 981.869C730.891 981.391 730.727 980.78 730.249 980.503Z" fill="#5465AE" stroke="#6877BA" stroke-width="2"/>
<path d="M709.868 989.072C707.797 983.174 698.968 985.54 700.123 991.684V991.684C700.585 994.139 699.185 996.564 696.827 997.392V997.392C690.929 999.463 693.295 1008.29 699.439 1007.14V1007.14C701.894 1006.68 704.319 1008.08 705.147 1010.43V1010.43C707.218 1016.33 716.047 1013.97 714.892 1007.82V1007.82C714.43 1005.37 715.83 1002.94 718.187 1002.11V1002.11C724.086 1000.04 721.72 991.213 715.576 992.368V992.368C713.121 992.83 710.696 991.43 709.868 989.072V989.072Z" fill="#758CD0"/>
<path d="M712.105 997.789L706.908 994.789C706.43 994.512 705.819 994.676 705.542 995.155L702.542 1000.35C702.266 1000.83 702.43 1001.44 702.909 1001.72L708.105 1004.72C708.583 1004.99 709.195 1004.83 709.471 1004.35L712.471 999.155C712.747 998.676 712.583 998.065 712.105 997.789Z" fill="#5465AE" stroke="#6877BA" stroke-width="2"/>
<path d="M692.583 970.928C690.511 965.029 681.683 967.395 682.838 973.539V973.539C683.3 975.994 681.9 978.419 679.542 979.247V979.247C673.644 981.319 676.01 990.147 682.154 988.992V988.992C684.609 988.531 687.034 989.93 687.862 992.288V992.288C689.933 998.186 698.762 995.821 697.607 989.677V989.677C697.145 987.221 698.545 984.796 700.902 983.969V983.969C706.801 981.897 704.435 973.068 698.291 974.223V974.223C695.836 974.685 693.411 973.285 692.583 970.928V970.928Z" fill="#758CD0"/>
<path d="M694.819 979.644L689.623 976.644C689.145 976.368 688.533 976.532 688.257 977.01L685.257 982.206C684.981 982.684 685.145 983.296 685.623 983.572L690.819 986.572C691.298 986.848 691.909 986.684 692.186 986.206L695.186 981.01C695.462 980.532 695.298 979.92 694.819 979.644Z" fill="#5465AE" stroke="#6877BA" stroke-width="2"/>
<path d="M691.724 1006.36C689.652 1000.46 680.823 1002.82 681.979 1008.97V1008.97C682.44 1011.42 681.04 1013.85 678.683 1014.68V1014.68C672.785 1016.75 675.15 1025.58 681.294 1024.42V1024.42C683.75 1023.96 686.174 1025.36 687.002 1027.72V1027.72C689.074 1033.62 697.903 1031.25 696.747 1025.11V1025.11C696.286 1022.65 697.686 1020.23 700.043 1019.4V1019.4C705.941 1017.33 703.576 1008.5 697.432 1009.65V1009.65C694.976 1010.11 692.552 1008.71 691.724 1006.36V1006.36Z" fill="#758CD0"/>
<path d="M693.96 1015.07L688.764 1012.07C688.286 1011.8 687.674 1011.96 687.398 1012.44L684.398 1017.64C684.122 1018.11 684.286 1018.73 684.764 1019L689.96 1022C690.438 1022.28 691.05 1022.11 691.326 1021.64L694.326 1016.44C694.602 1015.96 694.438 1015.35 693.96 1015.07Z" fill="#5465AE" stroke="#6877BA" stroke-width="2"/>
<path d="M709.009 1024.5C706.937 1018.6 698.108 1020.97 699.264 1027.11V1027.11C699.725 1029.57 698.325 1031.99 695.968 1032.82V1032.82C690.07 1034.89 692.435 1043.72 698.579 1042.57V1042.57C701.035 1042.1 703.459 1043.5 704.287 1045.86V1045.86C706.359 1051.76 715.188 1049.39 714.033 1043.25V1043.25C713.571 1040.8 714.971 1038.37 717.328 1037.54V1037.54C723.226 1035.47 720.861 1026.64 714.717 1027.8V1027.8C712.261 1028.26 709.837 1026.86 709.009 1024.5V1024.5Z" fill="#758CD0"/>
<path d="M711.245 1033.22L706.049 1030.22C705.571 1029.94 704.959 1030.11 704.683 1030.58L701.683 1035.78C701.407 1036.26 701.571 1036.87 702.049 1037.15L707.245 1040.15C707.724 1040.42 708.335 1040.26 708.611 1039.78L711.611 1034.58C711.887 1034.11 711.724 1033.49 711.245 1033.22Z" fill="#5465AE" stroke="#6877BA" stroke-width="2"/>
<path d="M727.153 1007.22C725.082 1001.32 716.253 1003.68 717.408 1009.83V1009.83C717.87 1012.28 716.47 1014.71 714.113 1015.54V1015.54C708.214 1017.61 710.58 1026.44 716.724 1025.28V1025.28C719.179 1024.82 721.604 1026.22 722.432 1028.58V1028.58C724.503 1034.48 733.332 1032.11 732.177 1025.97V1025.97C731.715 1023.51 733.115 1021.09 735.473 1020.26V1020.26C741.371 1018.19 739.005 1009.36 732.861 1010.51V1010.51C730.406 1010.97 727.981 1009.57 727.153 1007.22V1007.22Z" fill="#758CD0"/>
<path d="M729.39 1015.93L724.194 1012.93C723.715 1012.66 723.104 1012.82 722.828 1013.3L719.828 1018.5C719.551 1018.97 719.715 1019.59 720.194 1019.86L725.39 1022.86C725.868 1023.14 726.48 1022.97 726.756 1022.5L729.756 1017.3C730.032 1016.82 729.868 1016.21 729.39 1015.93Z" fill="#5465AE" stroke="#6877BA" stroke-width="2"/>
<path d="M745.298 989.932C743.226 984.033 734.398 986.399 735.553 992.543V992.543C736.014 994.998 734.614 997.423 732.257 998.251V998.251C726.359 1000.32 728.724 1009.15 734.868 1008V1008C737.324 1007.53 739.749 1008.93 740.576 1011.29V1011.29C742.648 1017.19 751.477 1014.82 750.322 1008.68V1008.68C749.86 1006.23 751.26 1003.8 753.617 1002.97V1002.97C759.516 1000.9 757.15 992.072 751.006 993.227V993.227C748.55 993.689 746.126 992.289 745.298 989.932V989.932Z" fill="#758CD0"/>
<path d="M747.534 998.648L742.338 995.648C741.86 995.372 741.248 995.536 740.972 996.014L737.972 1001.21C737.696 1001.69 737.86 1002.3 738.338 1002.58L743.534 1005.58C744.013 1005.85 744.624 1005.69 744.9 1005.21L747.9 1000.01C748.177 999.536 748.013 998.924 747.534 998.648Z" fill="#5465AE" stroke="#6877BA" stroke-width="2"/>
<path d="M763.442 972.647C761.371 966.748 752.542 969.114 753.697 975.258V975.258C754.159 977.713 752.759 980.138 750.402 980.966V980.966C744.503 983.037 746.869 991.866 753.013 990.711V990.711C755.468 990.249 757.893 991.649 758.721 994.007V994.007C760.792 999.905 769.621 997.539 768.466 991.395V991.395C768.004 988.94 769.404 986.515 771.762 985.687V985.687C777.66 983.616 775.294 974.787 769.15 975.942V975.942C766.695 976.404 764.27 975.004 763.442 972.647V972.647Z" fill="#758CD0"/>
<path d="M765.679 981.363L760.483 978.363C760.004 978.087 759.393 978.251 759.117 978.729L756.117 983.925C755.841 984.403 756.004 985.015 756.483 985.291L761.679 988.291C762.157 988.567 762.769 988.403 763.045 987.925L766.045 982.729C766.321 982.251 766.157 981.639 765.679 981.363Z" fill="#5465AE" stroke="#6877BA" stroke-width="2"/>
<path d="M782.659 990.274C780.588 984.375 771.759 986.741 772.914 992.885V992.885C773.376 995.34 771.976 997.765 769.618 998.593V998.593C763.72 1000.66 766.086 1009.49 772.23 1008.34V1008.34C774.685 1007.88 777.11 1009.28 777.938 1011.63V1011.63C780.009 1017.53 788.838 1015.17 787.683 1009.02V1009.02C787.221 1006.57 788.621 1004.14 790.978 1003.31V1003.31C796.877 1001.24 794.511 992.414 788.367 993.569V993.569C785.912 994.031 783.487 992.631 782.659 990.274V990.274Z" fill="#758CD0"/>
<path d="M784.896 998.99L779.7 995.99C779.221 995.714 778.61 995.877 778.333 996.356L775.333 1001.55C775.057 1002.03 775.221 1002.64 775.7 1002.92L780.896 1005.92C781.374 1006.19 781.986 1006.03 782.262 1005.55L785.262 1000.36C785.538 999.877 785.374 999.266 784.896 998.99Z" fill="#5465AE" stroke="#6877BA" stroke-width="2"/>
<path d="M762.583 1008.08C760.511 1002.18 751.683 1004.54 752.838 1010.69V1010.69C753.3 1013.14 751.9 1015.57 749.542 1016.4V1016.4C743.644 1018.47 746.01 1027.3 752.154 1026.14V1026.14C754.609 1025.68 757.034 1027.08 757.862 1029.44V1029.44C759.933 1035.33 768.762 1032.97 767.607 1026.83V1026.83C767.145 1024.37 768.545 1021.94 770.902 1021.12V1021.12C776.801 1019.05 774.435 1010.22 768.291 1011.37V1011.37C765.836 1011.83 763.411 1010.43 762.583 1008.08V1008.08Z" fill="#758CD0"/>
<path d="M764.819 1016.79L759.623 1013.79C759.145 1013.52 758.533 1013.68 758.257 1014.16L755.257 1019.35C754.981 1019.83 755.145 1020.44 755.623 1020.72L760.819 1023.72C761.298 1024 761.909 1023.83 762.186 1023.35L765.186 1018.16C765.462 1017.68 765.298 1017.07 764.819 1016.79Z" fill="#5465AE" stroke="#6877BA" stroke-width="2"/>
<path d="M744.438 1025.36C742.367 1019.46 733.538 1021.83 734.693 1027.97V1027.97C735.155 1030.43 733.755 1032.85 731.398 1033.68V1033.68C725.499 1035.75 727.865 1044.58 734.009 1043.43V1043.43C736.464 1042.96 738.889 1044.36 739.717 1046.72V1046.72C741.789 1052.62 750.617 1050.25 749.462 1044.11V1044.11C749.001 1041.65 750.4 1039.23 752.758 1038.4V1038.4C758.656 1036.33 756.29 1027.5 750.147 1028.66V1028.66C747.691 1029.12 745.266 1027.72 744.438 1025.36V1025.36Z" fill="#758CD0"/>
<path d="M746.675 1034.08L741.479 1031.08C741.001 1030.8 740.389 1030.97 740.113 1031.44L737.113 1036.64C736.837 1037.12 737.001 1037.73 737.479 1038.01L742.675 1041.01C743.153 1041.28 743.765 1041.12 744.041 1040.64L747.041 1035.44C747.317 1034.97 747.153 1034.35 746.675 1034.08Z" fill="#5465AE" stroke="#6877BA" stroke-width="2"/>
<path d="M726.294 1042.65C724.222 1036.75 715.394 1039.11 716.549 1045.26V1045.26C717.01 1047.71 715.611 1050.14 713.253 1050.97V1050.97C707.355 1053.04 709.721 1061.87 715.864 1060.71V1060.71C718.32 1060.25 720.745 1061.65 721.573 1064.01V1064.01C723.644 1069.9 732.473 1067.54 731.318 1061.4V1061.4C730.856 1058.94 732.256 1056.52 734.613 1055.69V1055.69C740.512 1053.62 738.146 1044.79 732.002 1045.94V1045.94C729.547 1046.4 727.122 1045 726.294 1042.65V1042.65Z" fill="#758CD0"/>
<path d="M728.53 1051.36L723.334 1048.36C722.856 1048.09 722.244 1048.25 721.968 1048.73L718.968 1053.92C718.692 1054.4 718.856 1055.01 719.334 1055.29L724.53 1058.29C725.009 1058.57 725.62 1058.4 725.896 1057.92L728.896 1052.73C729.173 1052.25 729.009 1051.64 728.53 1051.36Z" fill="#5465AE" stroke="#6877BA" stroke-width="2"/>
<path d="M708.149 1059.93C706.078 1054.03 697.249 1056.4 698.404 1062.54V1062.54C698.866 1065 697.466 1067.42 695.109 1068.25V1068.25C689.21 1070.32 691.576 1079.15 697.72 1078V1078C700.175 1077.53 702.6 1078.93 703.428 1081.29V1081.29C705.5 1087.19 714.328 1084.82 713.173 1078.68V1078.68C712.711 1076.23 714.111 1073.8 716.469 1072.97V1072.97C722.367 1070.9 720.001 1062.07 713.857 1063.23V1063.23C711.402 1063.69 708.977 1062.29 708.149 1059.93V1059.93Z" fill="#758CD0"/>
<path d="M710.386 1068.65L705.19 1065.65C704.711 1065.37 704.1 1065.54 703.824 1066.01L700.824 1071.21C700.548 1071.69 700.711 1072.3 701.19 1072.58L706.386 1075.58C706.864 1075.85 707.476 1075.69 707.752 1075.21L710.752 1070.01C711.028 1069.54 710.864 1068.92 710.386 1068.65Z" fill="#5465AE" stroke="#6877BA" stroke-width="2"/>
<path d="M725.435 1078.08C723.363 1072.18 714.534 1074.54 715.689 1080.69V1080.69C716.151 1083.14 714.751 1085.57 712.394 1086.4V1086.4C706.495 1088.47 708.861 1097.3 715.005 1096.14V1096.14C717.461 1095.68 719.885 1097.08 720.713 1099.44V1099.44C722.785 1105.33 731.613 1102.97 730.458 1096.83V1096.83C729.997 1094.37 731.397 1091.94 733.754 1091.12V1091.12C739.652 1089.05 737.287 1080.22 731.143 1081.37V1081.37C728.687 1081.83 726.262 1080.43 725.435 1078.08V1078.08Z" fill="#758CD0"/>
<path d="M727.671 1086.79L722.475 1083.79C721.997 1083.52 721.385 1083.68 721.109 1084.16L718.109 1089.35C717.833 1089.83 717.997 1090.44 718.475 1090.72L723.671 1093.72C724.149 1094 724.761 1093.83 725.037 1093.35L728.037 1088.16C728.313 1087.68 728.149 1087.07 727.671 1086.79Z" fill="#5465AE" stroke="#6877BA" stroke-width="2"/>
<path d="M743.579 1060.79C741.508 1054.89 732.679 1057.26 733.834 1063.4V1063.4C734.296 1065.86 732.896 1068.28 730.538 1069.11V1069.11C724.64 1071.18 727.006 1080.01 733.15 1078.86V1078.86C735.605 1078.39 738.03 1079.79 738.858 1082.15V1082.15C740.929 1088.05 749.758 1085.68 748.603 1079.54V1079.54C748.141 1077.08 749.541 1074.66 751.898 1073.83V1073.83C757.797 1071.76 755.431 1062.93 749.287 1064.09V1064.09C746.832 1064.55 744.407 1063.15 743.579 1060.79V1060.79Z" fill="#758CD0"/>
<path d="M745.816 1069.51L740.619 1066.51C740.141 1066.23 739.53 1066.39 739.253 1066.87L736.253 1072.07C735.977 1072.55 736.141 1073.16 736.619 1073.44L741.816 1076.44C742.294 1076.71 742.905 1076.55 743.182 1076.07L746.182 1070.87C746.458 1070.39 746.294 1069.78 745.816 1069.51Z" fill="#5465AE" stroke="#6877BA" stroke-width="2"/>
<path d="M761.724 1043.51C759.652 1037.61 750.823 1039.97 751.979 1046.12V1046.12C752.44 1048.57 751.04 1051 748.683 1051.83V1051.83C742.785 1053.9 745.15 1062.73 751.294 1061.57V1061.57C753.75 1061.11 756.174 1062.51 757.002 1064.87V1064.87C759.074 1070.76 767.903 1068.4 766.747 1062.25V1062.25C766.286 1059.8 767.686 1057.37 770.043 1056.55V1056.55C775.941 1054.48 773.576 1045.65 767.432 1046.8V1046.8C764.976 1047.26 762.552 1045.86 761.724 1043.51V1043.51Z" fill="#758CD0"/>
<path d="M763.96 1052.22L758.764 1049.22C758.286 1048.95 757.674 1049.11 757.398 1049.59L754.398 1054.78C754.122 1055.26 754.286 1055.87 754.764 1056.15L759.96 1059.15C760.438 1059.43 761.05 1059.26 761.326 1058.78L764.326 1053.59C764.602 1053.11 764.438 1052.5 763.96 1052.22Z" fill="#5465AE" stroke="#6877BA" stroke-width="2"/>
<path d="M779.868 1026.22C777.797 1020.32 768.968 1022.69 770.123 1028.83V1028.83C770.585 1031.29 769.185 1033.71 766.827 1034.54V1034.54C760.929 1036.61 763.295 1045.44 769.439 1044.29V1044.29C771.894 1043.82 774.319 1045.22 775.147 1047.58V1047.58C777.218 1053.48 786.047 1051.11 784.892 1044.97V1044.97C784.43 1042.51 785.83 1040.09 788.187 1039.26V1039.26C794.086 1037.19 791.72 1028.36 785.576 1029.52V1029.52C783.121 1029.98 780.696 1028.58 779.868 1026.22V1026.22Z" fill="#758CD0"/>
<path d="M782.105 1034.94L776.908 1031.94C776.43 1031.66 775.819 1031.82 775.542 1032.3L772.542 1037.5C772.266 1037.98 772.43 1038.59 772.909 1038.87L778.105 1041.87C778.583 1042.14 779.195 1041.98 779.471 1041.5L782.471 1036.3C782.747 1035.82 782.583 1035.21 782.105 1034.94Z" fill="#5465AE" stroke="#6877BA" stroke-width="2"/>
<path d="M799.944 1008.42C797.873 1002.52 789.044 1004.89 790.199 1011.03V1011.03C790.661 1013.48 789.261 1015.91 786.904 1016.74V1016.74C781.005 1018.81 783.371 1027.64 789.515 1026.48V1026.48C791.97 1026.02 794.395 1027.42 795.223 1029.78V1029.78C797.294 1035.68 806.123 1033.31 804.968 1027.17V1027.17C804.506 1024.71 805.906 1022.29 808.264 1021.46V1021.46C814.162 1019.39 811.796 1010.56 805.652 1011.71V1011.71C803.197 1012.18 800.772 1010.78 799.944 1008.42V1008.42Z" fill="#758CD0"/>
<path d="M802.181 1017.13L796.985 1014.13C796.506 1013.86 795.895 1014.02 795.619 1014.5L792.619 1019.7C792.343 1020.17 792.506 1020.79 792.985 1021.06L798.181 1024.06C798.659 1024.34 799.271 1024.17 799.547 1023.7L802.547 1018.5C802.823 1018.02 802.659 1017.41 802.181 1017.13Z" fill="#5465AE" stroke="#6877BA" stroke-width="2"/>
<path d="M797.86 1043.14C795.789 1037.24 786.96 1039.61 788.115 1045.75V1045.75C788.577 1048.21 787.177 1050.63 784.82 1051.46V1051.46C778.921 1053.53 781.287 1062.36 787.431 1061.21V1061.21C789.886 1060.74 792.311 1062.14 793.139 1064.5V1064.5C795.21 1070.4 804.039 1068.03 802.884 1061.89V1061.89C802.422 1059.43 803.822 1057.01 806.18 1056.18V1056.18C812.078 1054.11 809.712 1045.28 803.568 1046.44V1046.44C801.113 1046.9 798.688 1045.5 797.86 1043.14V1043.14Z" fill="#758CD0"/>
<path d="M800.097 1051.86L794.901 1048.86C794.422 1048.58 793.811 1048.74 793.535 1049.22L790.535 1054.42C790.259 1054.9 790.422 1055.51 790.901 1055.78L796.097 1058.78C796.575 1059.06 797.187 1058.9 797.463 1058.42L800.463 1053.22C800.739 1052.74 800.575 1052.13 800.097 1051.86Z" fill="#5465AE" stroke="#6877BA" stroke-width="2"/>
<path d="M779.975 1061.39C777.903 1055.49 769.074 1057.86 770.229 1064V1064C770.691 1066.46 769.291 1068.88 766.934 1069.71V1069.71C761.035 1071.78 763.401 1080.61 769.545 1079.46V1079.46C772.001 1078.99 774.425 1080.39 775.253 1082.75V1082.75C777.325 1088.65 786.154 1086.28 784.998 1080.14V1080.14C784.537 1077.69 785.937 1075.26 788.294 1074.43V1074.43C794.192 1072.36 791.827 1063.53 785.683 1064.69V1064.69C783.227 1065.15 780.802 1063.75 779.975 1061.39V1061.39Z" fill="#758CD0"/>
<path d="M782.211 1070.11L777.015 1067.11C776.537 1066.83 775.925 1067 775.649 1067.47L772.649 1072.67C772.373 1073.15 772.537 1073.76 773.015 1074.04L778.211 1077.04C778.689 1077.31 779.301 1077.15 779.577 1076.67L782.577 1071.47C782.853 1071 782.689 1070.38 782.211 1070.11Z" fill="#5465AE" stroke="#6877BA" stroke-width="2"/>
<path d="M760.605 1077.97C758.534 1072.07 749.705 1074.44 750.86 1080.58V1080.58C751.322 1083.04 749.922 1085.46 747.565 1086.29V1086.29C741.666 1088.36 744.032 1097.19 750.176 1096.03V1096.03C752.631 1095.57 755.056 1096.97 755.884 1099.33V1099.33C757.956 1105.23 766.784 1102.86 765.629 1096.72V1096.72C765.168 1094.26 766.567 1091.84 768.925 1091.01V1091.01C774.823 1088.94 772.457 1080.11 766.314 1081.27V1081.27C763.858 1081.73 761.433 1080.33 760.605 1077.97V1077.97Z" fill="#758CD0"/>
<path d="M762.842 1086.69L757.646 1083.69C757.168 1083.41 756.556 1083.57 756.28 1084.05L753.28 1089.25C753.004 1089.73 753.168 1090.34 753.646 1090.61L758.842 1093.61C759.32 1093.89 759.932 1093.73 760.208 1093.25L763.208 1088.05C763.484 1087.57 763.32 1086.96 762.842 1086.69Z" fill="#5465AE" stroke="#6877BA" stroke-width="2"/>
<path d="M742.46 1095.25C740.389 1089.36 731.56 1091.72 732.715 1097.87V1097.87C733.177 1100.32 731.777 1102.75 729.42 1103.57V1103.57C723.521 1105.65 725.887 1114.47 732.031 1113.32V1113.32C734.486 1112.86 736.911 1114.26 737.739 1116.61V1116.61C739.811 1122.51 748.639 1120.15 747.484 1114V1114C747.022 1111.55 748.422 1109.12 750.78 1108.3V1108.3C756.678 1106.22 754.312 1097.4 748.169 1098.55V1098.55C745.713 1099.01 743.288 1097.61 742.46 1095.25V1095.25Z" fill="#758CD0"/>
<path d="M744.697 1103.97L739.501 1100.97C739.022 1100.69 738.411 1100.86 738.135 1101.34L735.135 1106.53C734.859 1107.01 735.022 1107.62 735.501 1107.9L740.697 1110.9C741.175 1111.18 741.787 1111.01 742.063 1110.53L745.063 1105.34C745.339 1104.86 745.175 1104.25 744.697 1103.97Z" fill="#5465AE" stroke="#6877BA" stroke-width="2"/>
<path d="M722.125 1112.09C720.054 1106.19 711.225 1108.56 712.38 1114.7V1114.7C712.842 1117.16 711.442 1119.58 709.085 1120.41V1120.41C703.186 1122.48 705.552 1131.31 711.696 1130.16V1130.16C714.151 1129.69 716.576 1131.09 717.404 1133.45V1133.45C719.476 1139.35 728.304 1136.98 727.149 1130.84V1130.84C726.688 1128.39 728.087 1125.96 730.445 1125.13V1125.13C736.343 1123.06 733.978 1114.23 727.834 1115.39V1115.39C725.378 1115.85 722.953 1114.45 722.125 1112.09V1112.09Z" fill="#758CD0"/>
<path d="M724.362 1120.81L719.166 1117.81C718.688 1117.53 718.076 1117.7 717.8 1118.17L714.8 1123.37C714.524 1123.85 714.688 1124.46 715.166 1124.74L720.362 1127.74C720.84 1128.01 721.452 1127.85 721.728 1127.37L724.728 1122.17C725.004 1121.7 724.84 1121.08 724.362 1120.81Z" fill="#5465AE" stroke="#6877BA" stroke-width="2"/>
<path d="M705.099 1094.91C703.028 1089.01 694.199 1091.38 695.354 1097.52V1097.52C695.816 1099.98 694.416 1102.4 692.058 1103.23V1103.23C686.16 1105.3 688.526 1114.13 694.67 1112.98V1112.98C697.125 1112.52 699.55 1113.92 700.378 1116.27V1116.27C702.449 1122.17 711.278 1119.81 710.123 1113.66V1113.66C709.661 1111.21 711.061 1108.78 713.418 1107.95V1107.95C719.317 1105.88 716.951 1097.05 710.807 1098.21V1098.21C708.352 1098.67 705.927 1097.27 705.099 1094.91V1094.91Z" fill="#758CD0"/>
<path d="M707.336 1103.63L702.139 1100.63C701.661 1100.35 701.05 1100.52 700.773 1101L697.773 1106.19C697.497 1106.67 697.661 1107.28 698.139 1107.56L703.336 1110.56C703.814 1110.83 704.425 1110.67 704.702 1110.19L707.702 1105C707.978 1104.52 707.814 1103.91 707.336 1103.63Z" fill="#5465AE" stroke="#6877BA" stroke-width="2"/>
<path d="M687.814 1076.77C685.742 1070.87 676.914 1073.24 678.069 1079.38V1079.38C678.531 1081.84 677.131 1084.26 674.773 1085.09V1085.09C668.875 1087.16 671.241 1095.99 677.384 1094.83V1094.83C679.84 1094.37 682.265 1095.77 683.093 1098.13V1098.13C685.164 1104.03 693.993 1101.66 692.838 1095.52V1095.52C692.376 1093.06 693.776 1090.64 696.133 1089.81V1089.81C702.032 1087.74 699.666 1078.91 693.522 1080.06V1080.06C691.067 1080.53 688.642 1079.13 687.814 1076.77V1076.77Z" fill="#758CD0"/>
<path d="M690.05 1085.48L684.854 1082.48C684.376 1082.21 683.764 1082.37 683.488 1082.85L680.488 1088.05C680.212 1088.53 680.376 1089.14 680.854 1089.41L686.05 1092.41C686.529 1092.69 687.14 1092.53 687.416 1092.05L690.416 1086.85C690.693 1086.37 690.529 1085.76 690.05 1085.48Z" fill="#5465AE" stroke="#6877BA" stroke-width="2"/>
<path d="M690.157 1043.01C688.086 1037.11 679.257 1039.48 680.412 1045.62V1045.62C680.874 1048.08 679.474 1050.5 677.117 1051.33V1051.33C671.218 1053.4 673.584 1062.23 679.728 1061.08V1061.08C682.183 1060.61 684.608 1062.01 685.436 1064.37V1064.37C687.507 1070.27 696.336 1067.9 695.181 1061.76V1061.76C694.719 1059.31 696.119 1056.88 698.476 1056.05V1056.05C704.375 1053.98 702.009 1045.15 695.865 1046.31V1046.31C693.41 1046.77 690.985 1045.37 690.157 1043.01V1043.01Z" fill="#758CD0"/>
<path d="M692.394 1051.73L687.198 1048.73C686.719 1048.45 686.108 1048.62 685.832 1049.09L682.832 1054.29C682.555 1054.77 682.719 1055.38 683.198 1055.66L688.394 1058.66C688.872 1058.93 689.484 1058.77 689.76 1058.29L692.76 1053.09C693.036 1052.62 692.872 1052 692.394 1051.73Z" fill="#5465AE" stroke="#6877BA" stroke-width="2"/>
<path d="M704.001 1194.29L900.001 998.29C892.001 1025.29 882.001 1062.29 838.001 1110.29C794.001 1158.29 737.001 1181.29 704.001 1194.29Z" fill="#3C652F"/>
<path d="M900 998.29L704 1194.29C712 1167.29 722 1130.29 766 1082.29C810 1034.29 867 1011.29 900 998.29Z" fill="#3C652F"/>
<path d="M704.5 1193.79C730.667 1154.62 804.4 1062.29 898 1000.29" stroke="#2A501E" stroke-width="2" stroke-linecap="round"/>
</g>
<defs>
<clipPath id="clip0_59_1202">
<rect width="1728" height="1117" fill="white"/>
</clipPath>
</defs>
</svg>
