<svg width="397" height="356" viewBox="0 0 397 356" fill="none" xmlns="http://www.w3.org/2000/svg">
<g clip-path="url(#clip0_82_7883)">
<path d="M166.788 291.819L397 61.6063C387.604 93.3192 375.858 136.778 324.178 193.156C272.497 249.535 205.548 276.549 166.788 291.819Z" fill="#3C652F"/>
<path d="M397 61.6063L166.787 291.819C176.184 260.106 187.929 216.647 239.609 160.269C291.29 103.89 358.239 76.8754 397 61.6063Z" fill="#3C652F"/>
<path d="M167.374 291.231C198.108 245.228 284.712 136.778 394.65 63.9554" stroke="#2A501E" stroke-width="2" stroke-linecap="round"/>
<path d="M240.042 3.41166C242.114 -2.48676 250.943 -0.121085 249.787 6.02287V6.02287C249.326 8.47829 250.726 10.903 253.083 11.7309V11.7309C258.981 13.8025 256.616 22.6313 250.472 21.4761V21.4761C248.016 21.0144 245.592 22.4143 244.764 24.7716V24.7716C242.692 30.67 233.863 28.3044 235.019 22.1604V22.1604C235.48 19.705 234.08 17.2802 231.723 16.4523V16.4523C225.825 14.3808 228.19 5.552 234.334 6.70721V6.70721C236.79 7.16889 239.214 5.76896 240.042 3.41166V3.41166Z" fill="#758CD0"/>
<path d="M237.806 12.1278L243.002 9.1278C243.48 8.85166 244.092 9.01554 244.368 9.49383L247.368 14.69C247.644 15.1683 247.48 15.7799 247.002 16.056L241.806 19.056C241.327 19.3321 240.716 19.1683 240.44 18.69L237.44 13.4938C237.164 13.0155 237.327 12.4039 237.806 12.1278Z" fill="#5465AE" stroke="#6877BA" stroke-width="2"/>
<path d="M219.74 24.7234C221.811 18.8249 230.64 21.1906 229.485 27.3346V27.3346C229.023 29.79 230.423 32.2147 232.78 33.0426V33.0426C238.679 35.1142 236.313 43.943 230.169 42.7878V42.7878C227.714 42.3261 225.289 43.726 224.461 46.0833V46.0833C222.39 51.9817 213.561 49.6161 214.716 43.4721V43.4721C215.178 41.0167 213.778 38.5919 211.42 37.7641V37.7641C205.522 35.6925 207.888 26.8637 214.032 28.0189V28.0189C216.487 28.4806 218.912 27.0807 219.74 24.7234V24.7234Z" fill="#758CD0"/>
<path d="M217.503 33.4395L222.699 30.4395C223.178 30.1634 223.789 30.3272 224.065 30.8055L227.065 36.0017C227.342 36.48 227.178 37.0916 226.699 37.3677L221.503 40.3677C221.025 40.6439 220.413 40.48 220.137 40.0017L217.137 34.8055C216.861 34.3272 217.025 33.7157 217.503 33.4395Z" fill="#5465AE" stroke="#6877BA" stroke-width="2"/>
<path d="M241.052 45.0257C243.123 39.1272 251.952 41.4929 250.797 47.6369V47.6369C250.335 50.0923 251.735 52.5171 254.092 53.3449V53.3449C259.991 55.4165 257.625 64.2453 251.481 63.0901V63.0901C249.026 62.6284 246.601 64.0283 245.773 66.3856V66.3856C243.701 72.2841 234.873 69.9184 236.028 63.7744V63.7744C236.489 61.319 235.09 58.8942 232.732 58.0664V58.0664C226.834 55.9948 229.2 47.166 235.343 48.3212V48.3212C237.799 48.7829 240.224 47.383 241.052 45.0257V45.0257Z" fill="#758CD0"/>
<path d="M238.815 53.7418L244.011 50.7418C244.489 50.4657 245.101 50.6295 245.377 51.1078L248.377 56.304C248.653 56.7823 248.489 57.3939 248.011 57.67L242.815 60.67C242.337 60.9462 241.725 60.7823 241.449 60.304L238.449 55.1078C238.173 54.6295 238.337 54.018 238.815 53.7418Z" fill="#5465AE" stroke="#6877BA" stroke-width="2"/>
<path d="M220.749 66.3374C222.821 60.439 231.65 62.8046 230.494 68.9486V68.9486C230.033 71.404 231.433 73.8288 233.79 74.6566V74.6566C239.688 76.7282 237.323 85.557 231.179 84.4018V84.4018C228.723 83.9401 226.299 85.34 225.471 87.6973V87.6973C223.399 93.5958 214.57 91.2301 215.726 85.0861V85.0861C216.187 82.6307 214.787 80.206 212.43 79.3781V79.3781C206.532 77.3065 208.897 68.4777 215.041 69.6329V69.6329C217.497 70.0946 219.921 68.6947 220.749 66.3374V66.3374Z" fill="#758CD0"/>
<path d="M218.513 75.0535L223.709 72.0535C224.187 71.7774 224.799 71.9413 225.075 72.4195L228.075 77.6157C228.351 78.094 228.187 78.7056 227.709 78.9817L222.513 81.9817C222.034 82.2579 221.423 82.094 221.147 81.6157L218.147 76.4195C217.871 75.9413 218.034 75.3297 218.513 75.0535Z" fill="#5465AE" stroke="#6877BA" stroke-width="2"/>
<path d="M199.437 46.0351C201.509 40.1366 210.338 42.5023 209.183 48.6463V48.6463C208.721 51.1017 210.121 53.5265 212.478 54.3543V54.3543C218.377 56.4259 216.011 65.2547 209.867 64.0995V64.0995C207.412 63.6378 204.987 65.0377 204.159 67.395V67.395C202.087 73.2935 193.259 70.9278 194.414 64.7838V64.7838C194.875 62.3284 193.476 59.9036 191.118 59.0758V59.0758C185.22 57.0042 187.585 48.1754 193.729 49.3306V49.3306C196.185 49.7923 198.61 48.3924 199.437 46.0351V46.0351Z" fill="#758CD0"/>
<path d="M197.201 54.7512L202.397 51.7512C202.875 51.4751 203.487 51.6389 203.763 52.1172L206.763 57.3134C207.039 57.7917 206.875 58.4033 206.397 58.6794L201.201 61.6794C200.723 61.9556 200.111 61.7917 199.835 61.3134L196.835 56.1172C196.559 55.6389 196.723 55.0274 197.201 54.7512Z" fill="#5465AE" stroke="#6877BA" stroke-width="2"/>
<path d="M179.135 67.3468C181.207 61.4484 190.036 63.814 188.88 69.958V69.958C188.419 72.4134 189.819 74.8382 192.176 75.666V75.666C198.074 77.7376 195.709 86.5664 189.565 85.4112V85.4112C187.109 84.9495 184.685 86.3494 183.857 88.7067V88.7067C181.785 94.6052 172.956 92.2395 174.112 86.0955V86.0955C174.573 83.6401 173.173 81.2154 170.816 80.3875V80.3875C164.918 78.3159 167.283 69.4871 173.427 70.6423V70.6423C175.883 71.104 178.307 69.7041 179.135 67.3468V67.3468Z" fill="#758CD0"/>
<path d="M176.899 76.0629L182.095 73.0629C182.573 72.7868 183.185 72.9507 183.461 73.4289L186.461 78.6251C186.737 79.1034 186.573 79.715 186.095 79.9911L180.899 82.9911C180.42 83.2673 179.809 83.1034 179.533 82.6251L176.533 77.4289C176.257 76.9507 176.42 76.3391 176.899 76.0629Z" fill="#5465AE" stroke="#6877BA" stroke-width="2"/>
<path d="M200.447 87.6491C202.518 81.7507 211.347 84.1163 210.192 90.2603V90.2603C209.73 92.7157 211.13 95.1405 213.487 95.9684V95.9684C219.386 98.0399 217.02 106.869 210.876 105.713V105.713C208.421 105.252 205.996 106.652 205.168 109.009V109.009C203.097 114.907 194.268 112.542 195.423 106.398V106.398C195.885 103.942 194.485 101.518 192.128 100.69V100.69C186.229 98.6182 188.595 89.7894 194.739 90.9446V90.9446C197.194 91.4063 199.619 90.0064 200.447 87.6491V87.6491Z" fill="#758CD0"/>
<path d="M198.21 96.3652L203.406 93.3652C203.885 93.0891 204.496 93.253 204.772 93.7313L207.772 98.9274C208.049 99.4057 207.885 100.017 207.406 100.293L202.21 103.293C201.732 103.57 201.12 103.406 200.844 102.927L197.844 97.7313C197.568 97.253 197.732 96.6414 198.21 96.3652Z" fill="#5465AE" stroke="#6877BA" stroke-width="2"/>
<path d="M221.759 107.951C223.83 102.053 232.659 104.419 231.504 110.563V110.563C231.042 113.018 232.442 115.443 234.799 116.271V116.271C240.698 118.342 238.332 127.171 232.188 126.016V126.016C229.733 125.554 227.308 126.954 226.48 129.311V129.311C224.408 135.21 215.58 132.844 216.735 126.7V126.7C217.197 124.245 215.797 121.82 213.439 120.992V120.992C207.541 118.921 209.907 110.092 216.05 111.247V111.247C218.506 111.709 220.931 110.309 221.759 107.951V107.951Z" fill="#758CD0"/>
<path d="M219.522 116.668L224.718 113.668C225.197 113.391 225.808 113.555 226.084 114.034L229.084 119.23C229.36 119.708 229.197 120.32 228.718 120.596L223.522 123.596C223.044 123.872 222.432 123.708 222.156 123.23L219.156 118.034C218.88 117.555 219.044 116.944 219.522 116.668Z" fill="#5465AE" stroke="#6877BA" stroke-width="2"/>
<path d="M242.061 86.6397C244.132 80.7413 252.961 83.1069 251.806 89.2509V89.2509C251.344 91.7063 252.744 94.1311 255.101 94.959V94.959C261 97.0305 258.634 105.859 252.49 104.704V104.704C250.035 104.242 247.61 105.642 246.782 108V108C244.711 113.898 235.882 111.532 237.037 105.388V105.388C237.499 102.933 236.099 100.508 233.742 99.6804V99.6804C227.843 97.6088 230.209 88.78 236.353 89.9352V89.9352C238.808 90.3969 241.233 88.997 242.061 86.6397V86.6397Z" fill="#758CD0"/>
<path d="M239.824 95.3558L245.02 92.3558C245.499 92.0797 246.11 92.2436 246.386 92.7219L249.386 97.918C249.663 98.3963 249.499 99.0079 249.02 99.284L243.824 102.284C243.346 102.56 242.734 102.396 242.458 101.918L239.458 96.7219C239.182 96.2436 239.346 95.632 239.824 95.3558Z" fill="#5465AE" stroke="#6877BA" stroke-width="2"/>
<path d="M243.07 128.254C245.142 122.355 253.971 124.721 252.815 130.865V130.865C252.354 133.32 253.754 135.745 256.111 136.573V136.573C262.009 138.644 259.644 147.473 253.5 146.318V146.318C251.044 145.856 248.62 147.256 247.792 149.614V149.614C245.72 155.512 236.891 153.146 238.047 147.002V147.002C238.508 144.547 237.108 142.122 234.751 141.294V141.294C228.853 139.223 231.218 130.394 237.362 131.549V131.549C239.818 132.011 242.242 130.611 243.07 128.254V128.254Z" fill="#758CD0"/>
<path d="M240.834 136.97L246.03 133.97C246.508 133.694 247.12 133.858 247.396 134.336L250.396 139.532C250.672 140.01 250.508 140.622 250.03 140.898L244.834 143.898C244.356 144.174 243.744 144.01 243.468 143.532L240.468 138.336C240.192 137.858 240.356 137.246 240.834 136.97Z" fill="#5465AE" stroke="#6877BA" stroke-width="2"/>
<path d="M222.768 149.565C224.84 143.667 233.669 146.033 232.513 152.177V152.177C232.052 154.632 233.452 157.057 235.809 157.885V157.885C241.707 159.956 239.342 168.785 233.198 167.63V167.63C230.742 167.168 228.318 168.568 227.49 170.925V170.925C225.418 176.824 216.589 174.458 217.745 168.314V168.314C218.206 165.859 216.806 163.434 214.449 162.606V162.606C208.551 160.535 210.916 151.706 217.06 152.861V152.861C219.516 153.323 221.94 151.923 222.768 149.565V149.565Z" fill="#758CD0"/>
<path d="M220.532 158.282L225.728 155.282C226.206 155.005 226.818 155.169 227.094 155.648L230.094 160.844C230.37 161.322 230.206 161.934 229.728 162.21L224.532 165.21C224.054 165.486 223.442 165.322 223.166 164.844L220.166 159.648C219.89 159.169 220.054 158.558 220.532 158.282Z" fill="#5465AE" stroke="#6877BA" stroke-width="2"/>
<path d="M201.456 129.263C203.528 123.365 212.357 125.73 211.201 131.874V131.874C210.74 134.33 212.14 136.754 214.497 137.582V137.582C220.395 139.654 218.03 148.483 211.886 147.328V147.328C209.43 146.866 207.006 148.266 206.178 150.623V150.623C204.106 156.521 195.277 154.156 196.433 148.012V148.012C196.894 145.556 195.494 143.132 193.137 142.304V142.304C187.239 140.232 189.604 131.403 195.748 132.559V132.559C198.204 133.02 200.628 131.62 201.456 129.263V129.263Z" fill="#758CD0"/>
<path d="M199.22 137.979L204.416 134.979C204.894 134.703 205.506 134.867 205.782 135.345L208.782 140.541C209.058 141.02 208.894 141.631 208.416 141.907L203.22 144.907C202.742 145.184 202.13 145.02 201.854 144.541L198.854 139.345C198.578 138.867 198.742 138.255 199.22 137.979Z" fill="#5465AE" stroke="#6877BA" stroke-width="2"/>
<path d="M180.145 108.961C182.216 103.062 191.045 105.428 189.89 111.572V111.572C189.428 114.027 190.828 116.452 193.185 117.28V117.28C199.084 119.352 196.718 128.18 190.574 127.025V127.025C188.119 126.564 185.694 127.964 184.866 130.321V130.321C182.794 136.219 173.966 133.854 175.121 127.71V127.71C175.582 125.254 174.183 122.829 171.825 122.002V122.002C165.927 119.93 168.293 111.101 174.436 112.256V112.256C176.892 112.718 179.317 111.318 180.145 108.961V108.961Z" fill="#758CD0"/>
<path d="M177.908 117.677L183.104 114.677C183.582 114.401 184.194 114.565 184.47 115.043L187.47 120.239C187.746 120.717 187.582 121.329 187.104 121.605L181.908 124.605C181.43 124.881 180.818 124.717 180.542 124.239L177.542 119.043C177.266 118.565 177.43 117.953 177.908 117.677Z" fill="#5465AE" stroke="#6877BA" stroke-width="2"/>
<path d="M158.833 88.6585C160.904 82.7601 169.733 85.1258 168.578 91.2698V91.2698C168.116 93.7252 169.516 96.1499 171.873 96.9778V96.9778C177.772 99.0493 175.406 107.878 169.262 106.723V106.723C166.807 106.261 164.382 107.661 163.554 110.019V110.019C161.483 115.917 152.654 113.551 153.809 107.407V107.407C154.271 104.952 152.871 102.527 150.513 101.699V101.699C144.615 99.6277 146.981 90.7989 153.125 91.9541V91.9541C155.58 92.4158 158.005 91.0158 158.833 88.6585V88.6585Z" fill="#758CD0"/>
<path d="M156.596 97.3747L161.792 94.3747C162.271 94.0985 162.882 94.2624 163.158 94.7407L166.158 99.9369C166.435 100.415 166.271 101.027 165.792 101.303L160.596 104.303C160.118 104.579 159.506 104.415 159.23 103.937L156.23 98.7407C155.954 98.2624 156.118 97.6508 156.596 97.3747Z" fill="#5465AE" stroke="#6877BA" stroke-width="2"/>
<path d="M136.262 109.362C138.333 103.464 147.162 105.829 146.007 111.973V111.973C145.545 114.429 146.945 116.854 149.302 117.681V117.681C155.201 119.753 152.835 128.582 146.691 127.427V127.427C144.236 126.965 141.811 128.365 140.983 130.722V130.722C138.912 136.621 130.083 134.255 131.238 128.111V128.111C131.7 125.656 130.3 123.231 127.942 122.403V122.403C122.044 120.331 124.41 111.503 130.554 112.658V112.658C133.009 113.119 135.434 111.72 136.262 109.362V109.362Z" fill="#758CD0"/>
<path d="M134.025 118.078L139.221 115.078C139.7 114.802 140.311 114.966 140.587 115.444L143.587 120.641C143.864 121.119 143.7 121.73 143.221 122.007L138.025 125.007C137.547 125.283 136.935 125.119 136.659 124.641L133.659 119.444C133.383 118.966 133.547 118.355 134.025 118.078Z" fill="#5465AE" stroke="#6877BA" stroke-width="2"/>
<path d="M159.843 130.273C161.914 124.374 170.743 126.74 169.588 132.884V132.884C169.126 135.339 170.526 137.764 172.883 138.592V138.592C178.782 140.663 176.416 149.492 170.272 148.337V148.337C167.817 147.875 165.392 149.275 164.564 151.632V151.632C162.492 157.531 153.664 155.165 154.819 149.021V149.021C155.28 146.566 153.881 144.141 151.523 143.313V143.313C145.625 141.242 147.991 132.413 154.134 133.568V133.568C156.59 134.03 159.015 132.63 159.843 130.273V130.273Z" fill="#758CD0"/>
<path d="M157.606 138.989L162.802 135.989C163.28 135.712 163.892 135.876 164.168 136.355L167.168 141.551C167.444 142.029 167.28 142.641 166.802 142.917L161.606 145.917C161.128 146.193 160.516 146.029 160.24 145.551L157.24 140.355C156.964 139.876 157.128 139.265 157.606 138.989Z" fill="#5465AE" stroke="#6877BA" stroke-width="2"/>
<path d="M181.154 150.575C183.226 144.676 192.055 147.042 190.899 153.186V153.186C190.438 155.641 191.838 158.066 194.195 158.894V158.894C200.093 160.966 197.728 169.794 191.584 168.639V168.639C189.128 168.178 186.704 169.577 185.876 171.935V171.935C183.804 177.833 174.975 175.468 176.131 169.324V169.324C176.592 166.868 175.192 164.443 172.835 163.615V163.615C166.937 161.544 169.302 152.715 175.446 153.87V153.87C177.902 154.332 180.326 152.932 181.154 150.575V150.575Z" fill="#758CD0"/>
<path d="M178.918 159.291L184.114 156.291C184.592 156.015 185.204 156.179 185.48 156.657L188.48 161.853C188.756 162.331 188.592 162.943 188.114 163.219L182.918 166.219C182.44 166.495 181.828 166.331 181.552 165.853L178.552 160.657C178.276 160.179 178.44 159.567 178.918 159.291Z" fill="#5465AE" stroke="#6877BA" stroke-width="2"/>
<path d="M202.466 170.877C204.537 164.979 213.366 167.344 212.211 173.488V173.488C211.749 175.944 213.149 178.368 215.507 179.196V179.196C221.405 181.268 219.039 190.097 212.895 188.942V188.942C210.44 188.48 208.015 189.88 207.187 192.237V192.237C205.116 198.135 196.287 195.77 197.442 189.626V189.626C197.904 187.17 196.504 184.746 194.147 183.918V183.918C188.248 181.846 190.614 173.017 196.758 174.173V174.173C199.213 174.634 201.638 173.234 202.466 170.877V170.877Z" fill="#758CD0"/>
<path d="M200.229 179.593L205.425 176.593C205.904 176.317 206.515 176.481 206.792 176.959L209.792 182.155C210.068 182.634 209.904 183.245 209.425 183.521L204.229 186.521C203.751 186.798 203.139 186.634 202.863 186.155L199.863 180.959C199.587 180.481 199.751 179.869 200.229 179.593Z" fill="#5465AE" stroke="#6877BA" stroke-width="2"/>
<path d="M223.778 191.179C225.849 185.281 234.678 187.647 233.523 193.791V193.791C233.061 196.246 234.461 198.671 236.818 199.499V199.499C242.717 201.57 240.351 210.399 234.207 209.244V209.244C231.752 208.782 229.327 210.182 228.499 212.539V212.539C226.427 218.438 217.599 216.072 218.754 209.928V209.928C219.216 207.473 217.816 205.048 215.458 204.22V204.22C209.56 202.149 211.926 193.32 218.07 194.475V194.475C220.525 194.937 222.95 193.537 223.778 191.179V191.179Z" fill="#758CD0"/>
<path d="M221.541 199.896L226.737 196.896C227.216 196.619 227.827 196.783 228.103 197.262L231.103 202.458C231.379 202.936 231.216 203.548 230.737 203.824L225.541 206.824C225.063 207.1 224.451 206.936 224.175 206.458L221.175 201.262C220.899 200.783 221.063 200.172 221.541 199.896Z" fill="#5465AE" stroke="#6877BA" stroke-width="2"/>
<path d="M203.475 212.491C205.547 206.593 214.376 208.958 213.22 215.102V215.102C212.759 217.558 214.159 219.983 216.516 220.81V220.81C222.414 222.882 220.049 231.711 213.905 230.556V230.556C211.449 230.094 209.025 231.494 208.197 233.851V233.851C206.125 239.75 197.296 237.384 198.452 231.24V231.24C198.913 228.784 197.513 226.36 195.156 225.532V225.532C189.258 223.46 191.623 214.631 197.767 215.787V215.787C200.223 216.248 202.647 214.848 203.475 212.491V212.491Z" fill="#758CD0"/>
<path d="M201.239 221.207L206.435 218.207C206.913 217.931 207.525 218.095 207.801 218.573L210.801 223.769C211.077 224.248 210.913 224.859 210.435 225.135L205.239 228.135C204.761 228.412 204.149 228.248 203.873 227.769L200.873 222.573C200.597 222.095 200.761 221.483 201.239 221.207Z" fill="#5465AE" stroke="#6877BA" stroke-width="2"/>
<path d="M182.164 192.189C184.235 186.29 193.064 188.656 191.909 194.8V194.8C191.447 197.256 192.847 199.68 195.204 200.508V200.508C201.103 202.58 198.737 211.408 192.593 210.253V210.253C190.138 209.792 187.713 211.192 186.885 213.549V213.549C184.813 219.447 175.985 217.082 177.14 210.938V210.938C177.602 208.482 176.202 206.057 173.844 205.23V205.23C167.946 203.158 170.312 194.329 176.456 195.484V195.484C178.911 195.946 181.336 194.546 182.164 192.189V192.189Z" fill="#758CD0"/>
<path d="M179.927 200.905L185.123 197.905C185.602 197.629 186.213 197.793 186.489 198.271L189.489 203.467C189.765 203.945 189.602 204.557 189.123 204.833L183.927 207.833C183.449 208.109 182.837 207.945 182.561 207.467L179.561 202.271C179.285 201.793 179.449 201.181 179.927 200.905Z" fill="#5465AE" stroke="#6877BA" stroke-width="2"/>
<path d="M160.852 171.887C162.923 165.988 171.752 168.354 170.597 174.498V174.498C170.135 176.953 171.535 179.378 173.892 180.206V180.206C179.791 182.277 177.425 191.106 171.281 189.951V189.951C168.826 189.489 166.401 190.889 165.573 193.246V193.246C163.502 199.145 154.673 196.779 155.828 190.635V190.635C156.29 188.18 154.89 185.755 152.533 184.927V184.927C146.634 182.856 149 174.027 155.144 175.182V175.182C157.599 175.644 160.024 174.244 160.852 171.887V171.887Z" fill="#758CD0"/>
<path d="M158.615 180.603L163.811 177.603C164.29 177.327 164.901 177.49 165.177 177.969L168.177 183.165C168.454 183.643 168.29 184.255 167.811 184.531L162.615 187.531C162.137 187.807 161.525 187.643 161.249 187.165L158.249 181.969C157.973 181.49 158.137 180.879 158.615 180.603Z" fill="#5465AE" stroke="#6877BA" stroke-width="2"/>
<path d="M139.54 151.584C141.612 145.686 150.44 148.052 149.285 154.195V154.195C148.823 156.651 150.223 159.076 152.581 159.904V159.904C158.479 161.975 156.113 170.804 149.97 169.649V169.649C147.514 169.187 145.089 170.587 144.261 172.944V172.944C142.19 178.843 133.361 176.477 134.516 170.333V170.333C134.978 167.878 133.578 165.453 131.221 164.625V164.625C125.322 162.553 127.688 153.725 133.832 154.88V154.88C136.287 155.342 138.712 153.942 139.54 151.584V151.584Z" fill="#758CD0"/>
<path d="M137.304 160.3L142.5 157.3C142.978 157.024 143.59 157.188 143.866 157.666L146.866 162.863C147.142 163.341 146.978 163.952 146.5 164.229L141.304 167.229C140.825 167.505 140.214 167.341 139.938 166.863L136.938 161.666C136.661 161.188 136.825 160.577 137.304 160.3Z" fill="#5465AE" stroke="#6877BA" stroke-width="2"/>
<path d="M115.959 130.674C118.031 124.776 126.86 127.141 125.704 133.285V133.285C125.243 135.741 126.643 138.165 129 138.993V138.993C134.898 141.065 132.533 149.894 126.389 148.738V148.738C123.933 148.277 121.509 149.677 120.681 152.034V152.034C118.609 157.932 109.78 155.567 110.936 149.423V149.423C111.397 146.967 109.997 144.543 107.64 143.715V143.715C101.742 141.643 104.107 132.814 110.251 133.969V133.969C112.707 134.431 115.131 133.031 115.959 130.674V130.674Z" fill="#758CD0"/>
<path d="M113.723 139.39L118.919 136.39C119.397 136.114 120.009 136.278 120.285 136.756L123.285 141.952C123.561 142.431 123.397 143.042 122.919 143.318L117.723 146.318C117.244 146.594 116.633 146.431 116.357 145.952L113.357 140.756C113.081 140.278 113.244 139.666 113.723 139.39Z" fill="#5465AE" stroke="#6877BA" stroke-width="2"/>
<path d="M118.407 171.457C120.479 165.559 129.307 167.925 128.152 174.069V174.069C127.69 176.524 129.09 178.949 131.448 179.777V179.777C137.346 181.848 134.98 190.677 128.836 189.522V189.522C126.381 189.06 123.956 190.46 123.128 192.817V192.817C121.057 198.716 112.228 196.35 113.383 190.206V190.206C113.845 187.751 112.445 185.326 110.088 184.498V184.498C104.189 182.427 106.555 173.598 112.699 174.753V174.753C115.154 175.215 117.579 173.815 118.407 171.457V171.457Z" fill="#758CD0"/>
<path d="M116.17 180.174L121.367 177.174C121.845 176.897 122.457 177.061 122.733 177.54L125.733 182.736C126.009 183.214 125.845 183.826 125.367 184.102L120.17 187.102C119.692 187.378 119.081 187.214 118.804 186.736L115.804 181.54C115.528 181.061 115.692 180.45 116.17 180.174Z" fill="#5465AE" stroke="#6877BA" stroke-width="2"/>
<path d="M139.415 192.894C141.486 186.996 150.315 189.362 149.16 195.505V195.505C148.698 197.961 150.098 200.386 152.455 201.214V201.214C158.354 203.285 155.988 212.114 149.844 210.959V210.959C147.389 210.497 144.964 211.897 144.136 214.254V214.254C142.065 220.153 133.236 217.787 134.391 211.643V211.643C134.853 209.188 133.453 206.763 131.096 205.935V205.935C125.197 203.863 127.563 195.035 133.707 196.19V196.19C136.162 196.651 138.587 195.252 139.415 192.894V192.894Z" fill="#758CD0"/>
<path d="M137.178 201.61L142.374 198.61C142.853 198.334 143.464 198.498 143.74 198.976L146.74 204.173C147.017 204.651 146.853 205.262 146.374 205.539L141.178 208.539C140.7 208.815 140.088 208.651 139.812 208.173L136.812 202.976C136.536 202.498 136.7 201.887 137.178 201.61Z" fill="#5465AE" stroke="#6877BA" stroke-width="2"/>
<path d="M162.165 212.366C164.237 206.468 173.066 208.833 171.91 214.977V214.977C171.449 217.433 172.849 219.857 175.206 220.685V220.685C181.104 222.757 178.739 231.586 172.595 230.43V230.43C170.139 229.969 167.715 231.369 166.887 233.726V233.726C164.815 239.624 155.986 237.259 157.142 231.115V231.115C157.603 228.659 156.203 226.235 153.846 225.407V225.407C147.948 223.335 150.313 214.506 156.457 215.662V215.662C158.913 216.123 161.337 214.723 162.165 212.366V212.366Z" fill="#758CD0"/>
<path d="M159.929 221.082L165.125 218.082C165.603 217.806 166.215 217.97 166.491 218.448L169.491 223.644C169.767 224.123 169.603 224.734 169.125 225.01L163.929 228.01C163.451 228.287 162.839 228.123 162.563 227.644L159.563 222.448C159.287 221.97 159.451 221.358 159.929 221.082Z" fill="#5465AE" stroke="#6877BA" stroke-width="2"/>
<path d="M183.477 232.668C185.548 226.77 194.377 229.136 193.222 235.28V235.28C192.76 237.735 194.16 240.16 196.517 240.988V240.988C202.416 243.059 200.05 251.888 193.906 250.733V250.733C191.451 250.271 189.026 251.671 188.198 254.028V254.028C186.127 259.927 177.298 257.561 178.453 251.417V251.417C178.915 248.962 177.515 246.537 175.158 245.709V245.709C169.259 243.637 171.625 234.809 177.769 235.964V235.964C180.224 236.426 182.649 235.026 183.477 232.668V232.668Z" fill="#758CD0"/>
<path d="M181.24 241.384L186.436 238.384C186.915 238.108 187.526 238.272 187.802 238.75L190.802 243.947C191.079 244.425 190.915 245.037 190.436 245.313L185.24 248.313C184.762 248.589 184.15 248.425 183.874 247.947L180.874 242.75C180.598 242.272 180.762 241.661 181.24 241.384Z" fill="#5465AE" stroke="#6877BA" stroke-width="2"/>
<path d="M207.362 252.444C209.433 246.546 218.262 248.911 217.107 255.055V255.055C216.645 257.511 218.045 259.935 220.402 260.763V260.763C226.301 262.835 223.935 271.664 217.791 270.508V270.508C215.336 270.047 212.911 271.447 212.083 273.804V273.804C210.011 279.702 201.183 277.337 202.338 271.193V271.193C202.8 268.737 201.4 266.313 199.042 265.485V265.485C193.144 263.413 195.51 254.584 201.654 255.74V255.74C204.109 256.201 206.534 254.801 207.362 252.444V252.444Z" fill="#758CD0"/>
<path d="M205.125 261.16L210.321 258.16C210.8 257.884 211.411 258.048 211.687 258.526L214.687 263.722C214.963 264.201 214.8 264.812 214.321 265.088L209.125 268.088C208.647 268.364 208.035 268.201 207.759 267.722L204.759 262.526C204.483 262.048 204.647 261.436 205.125 261.16Z" fill="#5465AE" stroke="#6877BA" stroke-width="2"/>
<path d="M227.36 232.267C229.432 226.368 238.26 228.734 237.105 234.878V234.878C236.644 237.334 238.043 239.758 240.401 240.586V240.586C246.299 242.658 243.934 251.486 237.79 250.331V250.331C235.334 249.87 232.909 251.27 232.082 253.627V253.627C230.01 259.525 221.181 257.16 222.336 251.016V251.016C222.798 248.56 221.398 246.135 219.041 245.308V245.308C213.142 243.236 215.508 234.407 221.652 235.562V235.562C224.107 236.024 226.532 234.624 227.36 232.267V232.267Z" fill="#758CD0"/>
<path d="M225.124 240.983L230.32 237.983C230.798 237.707 231.41 237.871 231.686 238.349L234.686 243.545C234.962 244.023 234.798 244.635 234.32 244.911L229.124 247.911C228.645 248.187 228.034 248.023 227.758 247.545L224.758 242.349C224.481 241.871 224.645 241.259 225.124 240.983Z" fill="#5465AE" stroke="#6877BA" stroke-width="2"/>
<path d="M247.662 210.955C249.734 205.057 258.563 207.422 257.407 213.566V213.566C256.946 216.022 258.346 218.447 260.703 219.274V219.274C266.601 221.346 264.236 230.175 258.092 229.02V229.02C255.636 228.558 253.212 229.958 252.384 232.315V232.315C250.312 238.214 241.483 235.848 242.639 229.704V229.704C243.1 227.249 241.7 224.824 239.343 223.996V223.996C233.445 221.924 235.81 213.096 241.954 214.251V214.251C244.41 214.712 246.834 213.312 247.662 210.955V210.955Z" fill="#758CD0"/>
<path d="M245.426 219.671L250.622 216.671C251.1 216.395 251.712 216.559 251.988 217.037L254.988 222.233C255.264 222.712 255.1 223.323 254.622 223.6L249.426 226.6C248.948 226.876 248.336 226.712 248.06 226.233L245.06 221.037C244.784 220.559 244.948 219.947 245.426 219.671Z" fill="#5465AE" stroke="#6877BA" stroke-width="2"/>
<path d="M244.91 171.306C246.982 165.408 255.811 167.774 254.656 173.917V173.917C254.194 176.373 255.594 178.798 257.951 179.626V179.626C263.85 181.697 261.484 190.526 255.34 189.371V189.371C252.884 188.909 250.46 190.309 249.632 192.666V192.666C247.56 198.565 238.731 196.199 239.887 190.055V190.055C240.348 187.6 238.948 185.175 236.591 184.347V184.347C230.693 182.275 233.058 173.447 239.202 174.602V174.602C241.658 175.063 244.083 173.664 244.91 171.306V171.306Z" fill="#758CD0"/>
<path d="M242.674 180.022L247.87 177.022C248.348 176.746 248.96 176.91 249.236 177.388L252.236 182.585C252.512 183.063 252.348 183.674 251.87 183.951L246.674 186.951C246.196 187.227 245.584 187.063 245.308 186.585L242.308 181.388C242.032 180.91 242.196 180.299 242.674 180.022Z" fill="#5465AE" stroke="#6877BA" stroke-width="2"/>
<path d="M230.212 350.546L6.10352e-05 120.334C9.39647 152.047 21.142 195.505 72.8223 251.884C124.503 308.262 191.452 335.277 230.212 350.546Z" fill="#3C652F"/>
<path d="M0.000488281 120.334L230.213 350.546C220.816 318.833 209.071 275.375 157.391 218.996C105.71 162.618 38.7607 135.603 0.000488281 120.334Z" fill="#3C652F"/>
<path d="M229.626 349.959C198.892 303.956 112.288 195.505 2.34977 122.683" stroke="#2A501E" stroke-width="2" stroke-linecap="round"/>
</g>
<defs>
<clipPath id="clip0_82_7883">
<rect width="397" height="356" fill="white"/>
</clipPath>
</defs>
</svg>
