<svg width="408" height="394" viewBox="0 0 408 394" fill="none" xmlns="http://www.w3.org/2000/svg">
<g clip-path="url(#clip0_82_8035)">
<path d="M396.005 261.688L381.545 332.73C362.453 328.707 350.225 309.553 354.219 289.928L361.449 254.407C364.507 239.381 357.956 224.647 346.157 216.752C347.687 224.817 347.721 233.326 345.978 241.886L320.237 368.358L299.028 389.432L257.233 380.625L287.911 350.119L291.541 332.288L264.215 289.486L251.103 353.903L229.588 374.801L187.447 365.921L218.821 335.451L222.429 317.726L195.103 274.924L117.352 258.542C86.701 252.083 66.4513 223.293 68.6625 192.068L68.3953 192.141L69.0905 100.196C65.2548 99.3875 59.8813 98.2553 59.8813 98.2553C48.6161 95.8817 37.5986 101.321 31.9391 110.89L30.3496 110.555L39.3867 66.1539C41.3822 56.3501 50.7421 50.0243 60.2796 52.0339C60.2796 52.0339 72.8406 54.6805 78.7842 55.9329C85.7496 41.4529 101.45 32.9254 117.536 36.3146L124.765 0.793698C143.858 4.81644 156.086 23.9703 152.092 43.5956L147.439 66.4534L186.698 143.498L203.164 146.967L186.983 67.0245L187.069 67.0427C185.812 61.8879 185.516 56.4356 186.647 50.8766C190.447 32.2104 207.594 20.024 225.697 22.3565L225.738 22.0687L387.549 37.6406C373.318 107.564 331.119 121.01 292.308 122.686L324.075 172.443L341.352 176.084C379.468 184.115 403.979 222.508 396.005 261.688Z" fill="#6D4C41"/>
<path opacity="0.3" d="M257.127 143.886L236.381 79.9945C233.082 68.5966 244.903 56.6825 265.135 58.194L401.965 73.5703C386.932 115.764 348.196 122.626 311.81 121.917L347.185 162.862L257.127 143.886Z" fill="black"/>
<path opacity="0.4" d="M190.893 136.774C190.893 136.774 162.872 191.86 97.6956 178.128L97.4849 178.191L98.8668 102.001C100.397 102.324 101.63 102.583 101.806 102.62C111.152 104.59 120.418 97.9278 122.489 87.7504C124.561 77.573 118.657 67.715 109.311 65.7458C109.176 65.7173 108.201 65.5118 106.887 65.235C112.492 53.1718 124.907 45.9584 137.517 48.6154L143.522 19.1157C158.488 22.2693 167.924 38.0246 164.606 54.3231L160.743 73.3061L190.893 136.774Z" fill="white"/>
<path fill-rule="evenodd" clip-rule="evenodd" d="M171.252 335.028L188.315 339.68L177.501 380.747L110.089 362.368L146.686 310.554L141.253 306.717L192.059 223.974L225.632 246.485L171.252 335.028ZM101.496 316.011L93.3246 313.783L145.911 224.333L111.896 202.559L52.968 302.781L14.1978 292.211L3.38281 333.278L88.3448 356.44L78.0676 349.182L101.496 316.011Z" fill="#6D4C41"/>
</g>
<defs>
<clipPath id="clip0_82_8035">
<rect width="408" height="394" fill="white"/>
</clipPath>
</defs>
</svg>
